<svg version="1.0" xmlns="http://www.w3.org/2000/svg" viewBox="0 0 264 216">
  <path fill="rgba(255,255,255,0.8)" d="M95.7 1.6C53.2 9.3 22.2 48.3 24.3 91.5c3 60.2 62.8 98.9 119.9 77.5 3.1-1.1 9.3-4.3 13.9-7.1l8.3-5 29.3 29.3 29.3 29.3h5.1c4.3 0 5.4-.4 7.5-2.8 2.9-3.4 3.8-6.8 2.9-10.5-.4-1.7-10.8-12.9-29.7-31.9l-29.1-29.1 3.7-5.7c22.7-34.1 18.1-79.6-10.9-109C153.6 5.4 125-3.7 95.7 1.6zm10.6 22.2c2 3.7 4.8 10.8 6.3 15.7 2.4 8 2.7 10.5 2.6 22.5-.1 7.4-.3 15.1-.4 17-.5 5.8 2.5 5.2 9.9-2.2 12.9-12.7 21.3-29.3 24.5-48.2.3-1.6 1.2-1.1 6.6 2.9 6.8 5.1 14.7 14.2 18.4 21.2l2.3 4.3-5.5 5.6c-6.7 6.8-14.7 12.4-24.3 17-7.1 3.3-20.9 7.4-25.2 7.4-1.3 0-2.8.7-3.5 1.5-1.9 2.3.6 4.5 9.8 8.8 14.4 6.8 33.2 10 47 7.9l6.4-.9-.6 3.1c-1.5 7.4-11.6 24.7-17.5 30-2.1 1.9-2.2 1.9-6.3 0-15.9-7.1-32.8-23.4-39.7-38.1-4-8.7-7-8-9 2.1-1.6 8.3-1.4 24.1.4 32.6 1.5 7.1 5.9 19.6 7.6 21.5.5.5.9 1.6.9 2.3 0 1.3-1.5 1.4-8.7.9-9.5-.7-16.6-2.4-25-5.8-6.1-2.5-6.2-2.7-3.7-14.7 3.1-15.2 10.6-29.4 21.5-40.8 7-7.2 7.1-9.4.5-9.4-14.8.1-35.7 9-49.8 21.2-3.2 2.8-6 4.9-6.2 4.7-.2-.2-1.1-2.7-2-5.4-2.3-7.3-3.7-20-2.8-27.5l.7-6.5 7-1.3c9.4-1.8 26.7-.9 36.4 1.8 4.1 1.2 10.8 3.7 14.9 5.5 4.1 1.9 7.8 3.2 8.3 2.9 2.6-1.5-.2-8.7-7.7-20-6.5-9.9-15.6-18.6-26.4-25.2l-8.2-5.1 4.4-3.1c2.3-1.8 6.6-4.4 9.3-5.8 5-2.6 18.5-7 21.6-7.1 1-.1 3 2.4 5.2 6.7z"/>
</svg>
