<svg version="1.0" xmlns="http://www.w3.org/2000/svg" viewBox="0 0 264 216">
  <path fill="rgba(255,255,255,0.8)" d="M182.5.6c-1.6.3-7.6 1.4-13.1 2.5-9.9 2-10.4 2.1-17.5.4-10-2.3-27.7-3.1-37.9-1.6-18.4 2.7-37 10.2-50.6 20.4-5.8 4.4-6.9 5.7-6.9 8.2 0 2.7.4 3.1 4 3.9 20.6 4.4 40.4 10.6 44.2 13.8 2.9 2.3 1 5.2-6 9-10.5 5.7-14.9 9.5-14.5 12.7l.3 2.6 23.5.6c24.4.6 26.9 1 34.1 5.5 9.7 6.1 30.3 35.2 43.7 62 8.3 16.5 10.2 22.6 10.2 32.1 0 8.9-2.9 22-6.6 30.4-3.3 7.3-3 10.3 1.2 10.7 2.4.2 5-1 11.4-5.2 4.6-3.1 8.9-5.6 9.7-5.6.8 0 3.1.9 5.3 2 6 3.1 18.7 7.1 20.4 6.4 3.2-1.2 2.8-4.3-1.4-11-4.8-7.6-9.6-19.2-11.1-26.7-1.1-5.2-1-5.6 2.9-13.8 20.7-42.9 12-93.4-22-127.1-4.9-4.8-8.8-9.4-8.8-10.1 0-2.1 4.7-8.7 9.1-12.8 4.3-4 4.5-4.7 2.5-7.4C207.5.9 205.7.6 196.4.4c-6-.1-12.2 0-13.9.2zm-110 86.9c-16.7 4.6-32.8 18-40.3 33.6-9.5 19.6-9.5 39.6-.1 58.9 8.3 16.9 26.1 30.7 44.9 34.6 10.4 2.2 23.2 1.4 33.5-2.1 12.9-4.3 16.2-7.7 8.8-9.1-8.7-1.5-17.5-9.1-21.9-18.7-2.5-5.3-2.9-7.5-2.9-14.7 0-7.1.4-9.4 2.6-14 1.4-3.1 4-7.2 5.8-9.2 1.7-2 3.1-4.4 3.1-5.3 0-1.6-.7-1.7-6.1-1.2-8.9.8-15.8 4.6-23.1 12.7-3.4 3.8-6.8 7.2-7.5 7.5-2.7 1-5.1-1.5-7.2-7-2.6-6.9-2.8-21.1-.6-30 2.4-9.3 8.7-21.3 15-28.3 7.9-8.7 6.9-10.6-4-7.7z"/>
  <path fill="rgba(255,255,255,0.8)" d="M150.2 120.1c-4.5 1.7-4.8 7.8-.5 10.6 4.9 3.3 11.3-3.1 8-8-1.8-2.9-4.4-3.7-7.5-2.6zm-28.4 19.5c-7.7 4.1-7.5 16.9.2 20.9 8.5 4.4 18-1.1 18-10.5 0-9.2-9.9-14.9-18.2-10.4z"/>
</svg>
