<svg version="1.0" xmlns="http://www.w3.org/2000/svg" viewBox="0 0 264 216">
  <path fill="rgba(255,255,255,0.8)" d="M119.2 1.5C104.3 4.8 90 15 81.4 28.5c-3.8 6-5.2 7.5-7.2 7.5-4.5 0-14.7 3.2-21.2 6.6-33.8 17.7-42.4 64.1-17.2 92.4l4.9 5.5-.5 11.5c-.3 8.7 0 13.1 1.3 18 6.1 23.5 23.7 40 47.5 44.7 4.3.9 8.5 1.3 9.4 1 1.3-.5 1.6-2.3 1.6-9.1 0-4.7-.4-8.7-.9-9.1-.5-.3-3.3-1-6.3-1.5-16.3-3.1-29.4-15.9-32.9-32.2-1.5-6.8-.6-17 2-23.6 1.2-2.9 2.1-5.6 2.1-6.1 0-.4-2.5-2.5-5.6-4.6C45.2 120.4 38.2 104.2 41 89c2.4-13.3 10.7-24.3 22.8-30.2 5.7-2.8 7.8-3.3 17-3.8l10.5-.5 1.7-5.1c2.7-7.8 4.8-11.3 10.4-17.2C125 9.4 161.9 18.1 172 48.5l2.1 6.3 10.3.4c9.1.3 11 .7 16.7 3.5 28.6 14.1 31.6 52.8 5.5 70.8-3.1 2.1-5.6 4.1-5.6 4.5 0 .3 1 3.3 2.1 6.5 9 25.4-5.7 51-31.8 55.6-8.4 1.5-16.8 0-25.7-4.6l-7-3.5-4.8 5.2c-7.5 8.1-7.4 9.6.9 14.5 25.3 14.8 58.2 8.7 77.3-14.3 9.4-11.4 13.4-24.4 12.8-41.4l-.5-11.5 4.9-5.5c21.7-24.4 18.7-64.2-6.5-85.2-9.2-7.6-23.5-13.8-32-13.8-2 0-3.2-1.3-6.3-6.6C171.6 7.5 144.7-4 119.2 1.5z"/>
  <path fill="rgba(255,255,255,0.8)" d="M118.2 60c-38.1 10-57.3 51-42.1 90 3.2 8.1 9.1 17.4 12.6 19.7 2.1 1.4 2.5 1.2 7.3-3.3 7.5-7 7.6-7.3 3.1-14.1-6.5-9.8-8.4-16.2-8.5-28.3-.1-12.7 1.6-19.1 7.5-27.9 18.1-27.1 61.4-24.4 75.2 4.7 3 6.2 3.2 7.5 3.2 17.2s-.2 11-3.2 17.2c-3.8 8-9.9 15-15.7 17.8-5 2.4-14 2.7-18.9.7-7.9-3.4-15.7-13.8-15.7-21.1 0-8.4 8-18.6 14.6-18.6s10.6 6.5 6.9 11.4c-2.9 3.8-1.9 5.5 5.1 8.8 7.9 3.7 8.8 3.4 12.7-4.2 3.3-6.6 3.7-14.2.8-19.8-2.4-4.7-10.1-11.9-14.9-13.9-6-2.6-16.1-2.1-22.5 1.1-6.8 3.3-15 11.9-18.5 19.3-2.4 5.1-2.7 7-2.7 15.8 0 8.9.3 10.6 2.8 15.7 1.5 3.1 4.9 8 7.5 10.9 17.9 19.9 45.3 20.8 63.9 2 33.4-33.7 17.9-89.3-28.3-101.1-9.9-2.6-22.4-2.5-32.2 0z"/>
</svg>
