<svg version="1.0" xmlns="http://www.w3.org/2000/svg" viewBox="0 0 264 216">
  <path fill="rgba(255,255,255,0.8)" d="M51 .4c0 .2 1.4 3.3 3 6.8 4.5 9.6 6 18.2 6 34.8 0 23.1-4 52.3-13.1 94.8-5.9 27.9-7 39.7-4.5 48.7 3.2 11 13.8 26.6 19.1 27.9 3.3.8 7.2-1.3 12.2-6.6 8.3-9 11.8-18 12.6-32.5.5-7.6.4-8.3-1.4-8.3-1.9 0-4.2 2.5-10.6 11.9-2.1 3-4.4 5.6-5 5.9-2.3.7-1.5-9 2.7-32.6 7.3-41.8 9.6-66.7 8.7-95.7-.7-19.7-1.9-27-5.9-35C69.7 10.5 58.8-.9 57 2c-.7 1.1-1.3 1-3.4-.4C52.2.7 51 .1 51 .4zm112 1.1c-7.9 2.2-14 5.4-27.1 14.2-13.6 9.2-20.7 14.9-19.6 15.9.4.4 10.2.9 21.8 1.1 12.1.1 21.7.7 22.4 1.3 1.8 1.5 3.4 7.7 4.1 16.7.7 8.2.7 8.2-1.9 9.2-1.4.6-12.3 3-24.2 5.5-11.8 2.5-22.1 4.8-22.7 5.2-2.2 1.4 4.4 3.5 23.9 7.4 10.9 2.2 20.8 4 22 4 4.9 0 5.3 1.7 5.2 22.3-.1 10.6-.4 23.8-.8 29.5l-.6 10.4-9 .3c-22.5.8-42.9 11.6-50.4 26.7-5.9 11.7-3.4 25 6.2 33.4 6 5.2 15.6 9.5 24.3 10.7 21.4 3.1 41.2-8.8 48.1-28.8l1.6-4.8 1.8 2.4c1 1.3 3.1 5.5 4.6 9.4 4.8 12.6 9.1 16.5 18.4 16.5 4.5 0 5.5-.4 8.6-3.5 3.4-3.4 3.5-3.8 3.1-9.4-.8-11.3-13.3-30.1-26.1-39.5l-6.7-4.8v-9.2c0-5 .3-20.9.7-35.4l.6-26.2h3.6c10.6 0 21.5-3.4 25.6-8 3.8-4.2 1.4-16.3-3.9-19.3-1.4-.8-6.7-1.2-15.8-1.1l-13.7.1-1-6.2c-2.2-12.2-.7-17.5 4.8-17.5 8.2 0 18.1-5.9 18.1-10.7 0-5.8-7.6-13.9-15.9-16.8C186.6.1 170-.4 163 1.5zm-1.5 169.7c-1.2 5.5-6.2 14.3-9.9 17.6-6.1 5.3-13 5.5-18.8.3-5.8-5.1-3.5-11.6 5.7-16.4 5.1-2.6 12.7-4.5 18.8-4.6l4.9-.1-.7 3.2z"/>
</svg>
