<svg version="1.0" xmlns="http://www.w3.org/2000/svg" viewBox="0 0 264 216">
  <path fill="rgba(255,255,255,0.8)" d="M158 .6c-7.9 1.4-17.2 3.9-21.7 5.9-6.8 3.1-83.2 47.2-85.8 49.6-1.7 1.7-1.8 2.1-.5 3.3 1.1 1.1 110 64.8 119.1 69.6 1.2.7 6.4-1.9 20-9.6 10.1-5.8 19-11.3 19.6-12.2 1.1-1.3.4-2.4-4.6-7.2-13.7-13.5-12-27.8 4.9-39.8 12.2-8.5 14.7-10.9 17.4-16.4 6.6-13.3.1-26.4-17.8-35.5C198.2 3 188.6.9 173.5.5c-7.1-.2-14.1-.2-15.5.1z"/>
  <path fill="rgba(255,255,255,0.8)" d="M229.5 59c-2.7 2.8-7.5 6.7-10.7 8.6-8 4.9-11.8 9.5-11.8 14.3 0 3.8 3 9.1 5.1 9.1 2 0 12.8-8 16.6-12.4 4.8-5.4 6.5-10.9 6.1-18.9l-.3-5.8-5 5.1zM46.6 73.5c-1.2 3.3-.7 19.3.8 20.7.7.7 28.6 17 62 36.3 33.3 19.2 60.5 35.2 60.6 35.5 0 .3-2.4 2-5.4 3.7l-5.5 3.1-61-35.4L37 102l-4 2c-4 2-4 2-4 8.1v6l4.4 2.7c5.1 3.1 5.2 3.2 6.2 21.2.7 12.9 1.7 15 7 15 4.3 0 6.4-3 6.5-9.5 0-2.7.4-7.1.7-9.7l.7-4.7 44 25.5c24.2 14.1 44.2 25.8 44.4 26 .2.2.8 6.5 1.3 14.1.7 9.9 1.5 14.3 2.6 15.5 1.9 2.2 7.5 2.3 9.3.2.8-1 1.7-6.9 2.4-15.7l1-14.1 17.8-10.4c9.8-5.7 18-10.2 18.2-10 .1.1.8 4.8 1.4 10.3.8 7.4 1.5 10.3 2.8 11.2 2.4 1.8 5.7 1.6 8.1-.4 1.8-1.6 2.3-3.6 3.2-15.2.5-7.4 1-21.7 1-31.8 0-15.3-.2-18.3-1.5-18.3-.8 0-10 5-20.6 11.1-18.6 10.9-19.2 11.2-21.8 9.7-1.4-.9-28.4-16.5-59.9-34.8-31.5-18.2-58.1-33.4-59.1-33.7-1.1-.3-2.1.2-2.5 1.2z"/>
</svg>
