<svg version="1.0" xmlns="http://www.w3.org/2000/svg" viewBox="0 0 264 216">
  <path fill="rgba(255,255,255,0.8)" d="M140.7.7c-.4.3-.7 9.3-.7 20V40h4.3c10.1-.1 26.4-4.8 42.4-12.5 12.9-6.2 13.8-7.9 4.5-9-13.3-1.5-30.3-7.4-42.4-14.5-7.2-4.3-7.2-4.3-8.1-3.3zM121 42.2c-2.5 1.9-10.1 7-17 11.3-27.3 17.4-41.1 29.9-47.9 43.4-4.8 9.8-5.9 17-3.6 25.6 2.9 10.9 12.1 23.5 18.9 25.9 4.2 1.5 53.4 8.2 54.2 7.4.2-.3.3-26.7.2-58.7l-.3-58.3-4.5 3.4z"/>
  <path fill="rgba(255,255,255,0.8)" d="M139.6 49.5c-.3.9-.6 28.4-.6 61.1 0 51-.2 59.4-1.4 59.4-.8 0-23.4-3.2-50.2-7-26.8-3.9-48.8-7-49-7-.9 0-2.4 8.1-2.4 12.5.1 6 2.8 14.4 5.2 15.9 1.3.8 3.9.4 10.1-1.2 14.3-3.7 28.4-2.7 46.3 3.3 4.1 1.4 16.5 6.6 27.6 11.5 41.5 18.7 57.6 21.5 79.7 14.1 12.8-4.3 21-8.6 22.1-11.7 1.3-3.3 1.3-8.9 0-13.6-.9-3.1-1.6-3.8-4.3-4.3-3.1-.5-65.7-9.5-66.4-9.5-.1 0-.4-28-.5-62.3l-.3-62.2-7.6-.3c-6.3-.2-7.8 0-8.3 1.3z"/>
  <path fill="rgba(255,255,255,0.8)" d="M170.3 77.7c-1 .4-1.3 9.5-1.3 41.3 0 31.4.3 41 1.3 41.8 1.9 1.6 37.9 6.1 40 5 2.9-1.5 2-4.6-4.4-14.1-10.2-15.4-26.2-50.8-30.8-68.3-1.2-4.5-2.8-6.4-4.8-5.7zM64.6 186c-8.7 2.7-12.9 12.8-8.8 21 7.2 14.3 29.5 8 27.9-7.9-1-9.4-10.3-15.8-19.1-13.1zM92 205c-2.5 2.5-2.6 6.2-.2 8.3 3.9 3.5 10.2.9 10.2-4.1 0-2.8-3.4-6.2-6-6.2-1.1 0-2.9.9-4 2z"/>
</svg>
