<svg version="1.0" xmlns="http://www.w3.org/2000/svg" viewBox="0 0 264 216">
  <path fill="rgba(255,255,255,0.8)" d="M120.5 1.2C105.9 3.9 89.9 16 82.7 29.7c-2 3.9-4.2 7.5-4.9 8-.7.6-4.6 1.6-8.5 2.3-21.9 3.6-40.6 21.2-45.8 43.1-4.3 18.4.8 36.8 14.6 52.4l6.1 6.8-.8 7.1c-1.6 15.1-.2 23.9 5.4 35.6 12.5 25.7 44.6 37.7 71.2 26.6 3.6-1.5 7.7-3.3 9.3-3.9 2-.9 3.4-.9 5.5 0 1.5.6 5.6 2.4 9.2 3.9 35.4 14.9 76.1-11.2 77.2-49.6.1-3-.2-8.7-.6-12.6l-.8-7.1 6.1-6.8c21.6-24.4 21.5-56.9-.4-79.2-8.5-8.7-19.4-14.4-30.8-16.3-3.9-.7-7.8-1.7-8.5-2.3-.7-.5-2.9-4.2-5-8.1C170 8.2 145.1-3.5 120.5 1.2zm14.4 53.7c5.4 12.5 6.7 32.9 3.1 46.6-1 3.8-1.7 7.1-1.6 7.3.2.1 3.3-1.8 7-4.2 3.7-2.4 10.9-5.8 16.4-7.6 8.5-2.9 11-3.3 20.9-3.4 6.1-.1 11.5.2 11.9.7 1.1 1-4.1 6.2-10.6 10.5-8.2 5.4-21.1 9.9-32.9 11.4l-10.1 1.3 5.9 4.7c6.8 5.4 15 15.8 19.1 24.4 3.4 7.1 6.8 18.9 5.7 20-1.9 1.9-15.8-8.6-22.7-16.9-5.5-6.8-11.1-16.8-13.1-23.5-.7-2.3-1.5-4.2-1.9-4.2-.4 0-1.2 1.9-1.9 4.2-2 6.6-7.6 16.8-12.9 23.1-7.4 8.9-21 19.2-22.9 17.3-1.1-1.1 2.3-13 5.7-20 4.1-8.6 12.3-19 19.1-24.4l5.9-4.7-10.1-1.3c-11.8-1.5-24.7-6-32.9-11.4-6.5-4.3-11.7-9.5-10.6-10.5.4-.5 5.8-.8 11.9-.7 9.9.1 12.4.5 20.9 3.4 5.5 1.8 12.7 5.2 16.4 7.6 3.7 2.4 6.8 4.3 7 4.2.1-.2-.6-3.5-1.6-7.3-2.4-8.8-2.6-26.4-.5-35.3 1.7-7.1 5.3-16.2 6.5-16.2.4 0 1.7 2.2 2.9 4.9zm-22.1 24.7c2.8 1.9 2.9 5.7.2 8.4-2.4 2.4-3.8 2.5-6.8.4-2.6-1.8-2.9-6-.5-8.6 2-2.2 4.2-2.3 7.1-.2zm45.4.1c2.5 2.3 2.3 6.8-.4 8.7-3 2.1-4.4 2-6.8-.4-2.7-2.7-2.6-6.5.2-8.4 2.9-2 4.7-2 7 .1zm-58.4 44.1c4.2 5.3-3.5 12.4-8.3 7.6-2.4-2.4-1.6-7.6 1.4-9 2.7-1.4 5-.9 6.9 1.4zm73-.5c1.7 1.3 1.5 6.2-.4 8.1-4.7 4.8-12.3-2.3-8.1-7.6 2.1-2.8 5.3-2.9 8.5-.5zM136 150c1.1 1.1 2 2.9 2 4 0 2.6-3.4 6-6 6-1.1 0-2.9-.9-4-2s-2-2.9-2-4 .9-2.9 2-4 2.9-2 4-2 2.9.9 4 2z"/>
</svg>
