<svg version="1.0" xmlns="http://www.w3.org/2000/svg" viewBox="0 0 264 216">
  <path fill="rgba(255,255,255,0.8)" d="M77.1 8.1C69.8 13 60.3 22.4 54.5 30.5c-9.4 13.1-18.3 34.9-22 53.7-1 4.9-2.3 8.8-2.9 8.8-.6 0-3.6-2.6-6.8-5.7-4.3-4.3-6.1-5.4-6.9-4.6-.7.7-4.5 17.9-8.6 38.4C1.6 149.5.1 158.5 1.1 159c.7.5 3.9-1.2 8.3-4.5 6.6-4.9 16.3-10.4 21.2-11.9 1.8-.5 2.3-.2 2.9 2.1 1 4.4 8 18.6 11.6 24 15.1 22.4 38 37.1 64.8 41.8 10.8 1.9 33.4 1.9 44.2 0 33.9-5.9 61-27.8 74.1-59.7 2.3-5.7 3.7-7.8 5-7.8 3 0 13.7 5.8 21.4 11.5 4.4 3.3 7.6 5 8.3 4.5 1-.5-.5-9.5-6.2-37.9-4.1-20.5-7.9-37.7-8.6-38.4-.8-.8-2.6.3-6.9 4.6-3.2 3.1-6.2 5.7-6.8 5.7-.6 0-1.9-3.9-2.9-8.8-3.5-17.6-12.3-39.8-20.6-51.8-7.1-10.4-20.1-22.9-28.1-27-3.5-1.8-7.3-1.2-8.7 1.4-.5 1-2.4 9.9-4.1 19.7-1.7 10.1-3.7 18.6-4.5 19.4-1.2 1.3-2.7 1.2-10.7-.3-14.1-2.7-26.6-3.1-38.8-1.1-17.2 2.9-17.6 2.9-18.4 1-.5-1.5-6.6-35-6.6-36.7C91 7.3 87 4 85.1 4c-1 0-4.6 1.8-8 4.1zm18.3 97.8l6.9 7-1.7 4.5c-3.5 9.3-13.2 12.6-22.4 7.7-7.2-3.8-8.7-15.9-2.9-22.6 2.6-3.1 9.5-5.7 11.7-4.5.8.5 4.6 4 8.4 7.9zm91.2-5.4c7.5 4.9 7.5 19.1-.1 24.1-8.7 5.7-19.4 2.4-23.1-7.2l-1.8-4.6 8.1-7.9c7.7-7.6 8.1-7.8 11.3-6.9 1.8.5 4.3 1.6 5.6 2.5zM85 151c1.8 2.7 3.8 5 4.5 5 .7 0 2.5-1.8 3.9-4.1 2.2-3.2 3.2-4 4.9-3.6 13.4 3.3 42 3.9 58.4 1.3 5.7-.9 10.5-1.6 10.8-1.6.3 0 1.7 1.8 3.1 4 1.5 2.2 3.2 4 3.9 4 .7 0 2.7-2.3 4.5-5 3.2-5 3.3-5 8.5-5 9.6 0 13 5.3 10 15.5C192 180.7 157 194.1 121 191c-32.6-2.9-56.3-17.5-56.5-34.8 0-4.7.4-5.7 2.8-7.8 2.3-1.9 3.9-2.4 8.7-2.4h5.8l3.2 5z"/>
</svg>
