<svg version="1.0" xmlns="http://www.w3.org/2000/svg" viewBox="0 0 264 216">
  <path fill="rgba(255,255,255,0.8)" d="M58.5 2c-3.8 1-9.6 3-12.8 4.4-5.8 2.5-5.9 2.6-5.2 5.8 1.3 6.2 6.1 17.4 10 23.2 11.1 16.8 29.6 20 53.8 9.2 5.8-2.5 5.9-2.6 5.2-5.8-1.4-6.4-6.6-18.4-10.4-23.8C89.8 1.5 76.5-2.8 58.5 2z"/>
  <path fill="rgba(255,255,255,0.8)" d="M122.7 34.7l-4.9.4.7 5.9.7 5.9-8.4 4c-11.3 5.4-21.9 8.2-32.5 8.4l-8.7.2-6.2 7.4c-24.7 29.5-28.2 71.4-8.6 104.6 6 10.3 21 25.4 30.7 31.1 16.1 9.4 28.7 12.8 47.5 12.8s31.4-3.4 47.5-12.8c9.7-5.7 24.7-20.8 30.7-31.1 9-15.3 13.5-33.5 12.5-51-.7-13.2-3.6-23.8-9.7-36-12.1-24.4-34.2-41.8-60.6-47.8-7.5-1.8-22.9-2.7-30.7-2zm26.1 21.5c4.5 2.2 4 5.6-3.3 23.3-8 19.4-8.7 20.5-12.5 20.5-3.8 0-4.5-1.1-12.5-20.4-6.6-16.2-7.6-20.4-5.1-22.6 3.7-3 27.5-3.6 33.4-.8zm-47.1 10c1.6 2.1 15.3 35.6 15.3 37.5 0 2.4-3 5.3-5.5 5.3-3.5 0-35.8-13.8-37.8-16.2-2.2-2.7-1.6-4.9 3.7-11.7 6.1-8 16.2-16.1 20.2-16.1 1.7 0 3.6.6 4.1 1.2zm76.4 4.1c6.6 5.5 14.2 14.5 15.3 18.3.4 1.3 0 2.9-1.1 4.2-1.9 2.3-34.3 16.2-37.6 16.2-2.6 0-5.7-2.8-5.7-5.2 0-1.9 13.6-35.4 15.3-37.6 2.2-2.8 7.1-1.3 13.8 4.1zm-89.7 42.8c16.9 7 19.6 8.6 19.6 12.1 0 3.3-3.5 5.4-21.4 12.7-16.9 6.9-17.9 7.2-20.2 5.6-3.3-2.1-3.9-5.1-3.9-19.5 0-14.2 1.3-18 6.1-18 1.4 0 10.3 3.2 19.8 7.1zm113.3-4.4c1.5 2.2 1.8 4.9 1.8 15.3 0 14.4-.6 17.4-3.9 19.5-2.3 1.6-3.3 1.3-20.2-5.6-9.8-4-18.6-8.1-19.6-9.1-2.1-2.1-2.3-4.7-.5-7.1 1.6-2.1 34.4-15.6 37.9-15.7 1.9 0 3.3.8 4.5 2.7zM115 143c1.1 1.1 2 2.8 2 3.7-.1 1-3.4 9.7-7.4 19.3-9.3 22.4-10.2 23-21.2 14.1-3.2-2.5-8-7.3-10.5-10.5-8.9-11-8.3-11.9 14.1-21.2 9.6-4 18.3-7.3 19.3-7.3.9-.1 2.6.8 3.7 1.9zm58.6 5.3c22.9 9.4 23.5 10.2 14.5 21.3-2.5 3.2-7.3 8-10.5 10.5-11 8.9-11.9 8.3-21.2-14.1-4-9.6-7.3-18.3-7.4-19.3 0-2 3.4-5.7 5.4-5.7.7 0 9.4 3.3 19.2 7.3zm-37.3 2.9c2.2 1.7 15.7 34.3 15.7 37.9 0 5.2-3.5 6.4-19 6.4s-19-1.2-19-6.4c0-3.6 13.5-36.2 15.7-37.9.9-.6 2.4-1.2 3.3-1.2.9 0 2.4.6 3.3 1.2z"/>
</svg>
