<svg version="1.0" xmlns="http://www.w3.org/2000/svg" viewBox="0 0 264 216">
  <path fill="rgba(255,255,255,0.8)" d="M116.6 2.2c-.8 1.3-3.9 13.3-7.1 26.8-3.1 13.5-6.7 26.8-8 29.7C98.2 66 90.9 73.4 83.6 77c-3.9 1.9-14.8 4.9-30.6 8.6-13.5 3.1-25.5 6.2-26.7 7-2.6 1.7-3 5.5-.8 7.7.8.9 2.9 1.9 4.7 2.2 1.8.4 13.6 3.1 26.1 6.1 25.5 6 32.2 8.8 38.8 16.2 6.2 7.1 8.4 13.1 14.5 39.7 3.1 13.7 6.4 25.8 7.2 26.7 2 2.4 6.9 2.3 8.2-.1.5-1.1 3.7-13.5 7-27.6 6.5-27.7 8.4-32.8 15.6-39.9 7.1-7.2 12.2-9.1 39.9-15.6 14.1-3.3 26.5-6.5 27.6-7 2.4-1.3 2.5-6.2.2-8.2-1-.8-13-4.1-26.8-7.2-26.6-6.1-32.6-8.3-39.7-14.5-7.6-6.7-10.2-13.1-16.9-41.8-3.4-14.2-6.8-26.6-7.6-27.6-2.2-2.4-6-2.1-7.7.5z"/>
  <path fill="rgba(255,255,255,0.8)" d="M69.1 45.4c-2.4 2.4-4.1 5-3.8 5.8.2.7 4.7 3.7 9.8 6.6 7.8 4.5 9.5 5.1 10.6 3.9 1.2-1.2.6-2.8-4-10.8-3-5.2-6.1-9.5-6.9-9.7-.7-.1-3.3 1.7-5.7 4.2zm91 4.6c-8 14.1-7 15.3 6.4 7.8 5.2-2.9 9.7-5.9 10-6.6.6-1.7-7.3-10.2-9.5-10.2-1.2 0-3.5 3-6.9 9zm-86.3 86.2c-5.8 3.3-8.8 5.6-8.8 6.8 0 2.2 8.5 10.1 10.2 9.5.7-.3 3.7-4.8 6.6-10 7.5-13.4 6.1-14.5-8-6.3zm81.2-3.6c0 1.9 9.6 19 11.1 20 1.3.8 11.3-9.2 10.5-10.5-1-1.5-18.1-11.1-20-11.1-.9 0-1.6.7-1.6 1.6zm41.5 3.6c-4.8 21.5-6.6 26.1-11.5 29.5-1.6 1.1-11.7 3.9-24.7 6.8-2.7.6-3 3.1-.5 4.3.9.5 6.2 1.9 11.7 3.2 10.8 2.4 15.3 4.6 17.9 8.5.9 1.4 3 7.8 4.6 14.1 4.3 17.8 5.7 17.8 9.9.1 4.2-17.5 5.3-18.6 22.8-22.8 17.7-4.2 17.7-5.6-.1-9.9-6.3-1.6-12.7-3.7-14.1-4.6-3.9-2.6-6.1-7.1-8.5-17.9-1.3-5.5-2.7-10.8-3.2-11.8-1.2-2.4-3.7-2.1-4.3.5z"/>
</svg>
