<svg xmlns="http://www.w3.org/2000/svg" version="1.0" viewBox="0 0 264 216">
  <path fill="rgba(255,255,255,0.8)" d="M51.8 16.3c-19.1 8.9-35 16.7-35.2 17.4-.3.7 7.1 17.5 16.4 37.4 9.4 20 17.2 37 17.5 38 .4 1.2-.7 2.2-4.4 3.8a18 18 0 0 0-5.7 3.2c-.8 1.3 4.4 12.6 6 13.2.6.2 22-9.3 47.6-21.2 38.3-17.9 46.6-22 46.8-23.8.4-2.5-4.3-12.3-5.9-12.3-.6 0-3.3 1-6 2.1-2.7 1.2-5.2 2-5.4 1.7-.3-.2-8.1-16.8-17.5-36.8C96.6 18.9 88.4 2 87.7 1.3c-.9-.9-8.6 2.3-35.9 15zm59.7 56.4c1.9 4.2 3.4 7.8 3.2 8-.6.5-54 25.3-54.6 25.3-.4 0-2.3-3.6-4.3-8.1l-3.7-8.1 2.7-1.5c6.9-3.8 51.8-24.1 52.4-23.7.4.3 2.4 3.9 4.3 8.1z"/>
  <path fill="rgba(255,255,255,0.8)" d="M197.3 8.5a681 681 0 0 0-27.4 45.8 2100 2100 0 0 1-26.5 45.8 22 22 0 0 1-8.6 2.8c-12.4 2-25.1 8-39 18.2a288.6 288.6 0 0 0-38.2 39.4c-3.4 5.1-3.8 6.2-3.4 10.5.7 6.8 5.7 14.8 15.3 24.6 6.6 6.6 9.8 8.9 17.6 12.8a61 61 0 0 0 73.9-12.3 65.8 65.8 0 0 0 20.7-48.3c.3-6.4.8-12 1.2-12.5.3-.5 4-3.1 8.1-5.7 4.4-2.8 11.8-9.2 18-15.5a139 139 0 0 0 34-51.9c3-8.6 3.3-11 3.4-20.7 0-8.1-.4-12-1.6-14.7-1.8-3.9-4.9-5.5-8.7-4.3-1.2.3-14.6 18.9-33 45.4-17 24.6-31.7 45.3-32.6 46.1-2.4 2-6.5-.2-6.5-3.5 0-1.6 7.8-13.7 22.8-35.2l22.7-32.8v-12c0-13.9-1.9-21-6.2-22.6-3.2-1.2-3.5-1.2-6 .6z"/>
</svg>
