<svg version="1.0" xmlns="http://www.w3.org/2000/svg" viewBox="0 0 264 216">
  <path fill="rgba(255,255,255,0.8)" d="M14.9 2.3C10.8 5 9.4 8.9 8 20.8 6.7 32.2 6.7 75.3 8 86c1.4 11.2 2.5 14.4 6.1 17.5 2.6 2.1 4 2.5 9.9 2.5 9.3 0 25.4-2.3 49-7 25.6-5.1 42-9 42-10 0-.4-2.5-2.7-5.5-5-6.8-5.2-18.9-17.9-21-21.9L86.9 59h-9.4c-8.2 0-9.8-.3-11.5-2-2.5-2.5-2.5-4.1 0-7.3 1.9-2.4 2.9-2.6 9.8-2.9l7.7-.3.7-6.1c1.1-10.1 6.2-18 15.8-24.6 2-1.4 2.2-1.9 1.1-2.6C98.4 11.3 57.2 3.5 37 1 23.6-.6 18.8-.3 14.9 2.3zm211.3-1.2c-17.7 2.1-60.7 10.3-63.3 12.1-1.1.7-1 1.1.5 2.1 4.8 2.9 11 9.5 13.3 14 1.3 2.7 2.8 7.7 3.1 11.1l.7 6.1 6.5.3c9 .3 10.5.8 11.8 3.7 1.6 3.5 1.5 4.2-.8 6.5-1.7 1.7-3.3 2-11.4 2h-9.4l-3.1 4.8c-3.2 5-14.7 16.6-21.3 21.6-2.1 1.6-3.8 3.2-3.8 3.6 0 1 16.4 4.9 42 10 23.6 4.7 39.7 7 49 7 5.9 0 7.3-.4 9.9-2.5 3.6-3.1 4.7-6.3 6.1-17.5 1.3-10.7 1.3-53.8 0-65.2-1.4-11.9-2.8-15.8-6.9-18.5-3.7-2.5-9-2.8-22.9-1.2z"/>
  <path fill="rgba(255,255,255,0.8)" d="M109.8 24C97 28 91.5 41.9 97.4 54.7c1.3 2.8 5.2 7.9 8.5 11.2C112.4 72.4 130.1 86 132 86c1.9 0 19.6-13.6 26.1-20.1 7.4-7.4 10.9-14.3 10.9-21.8 0-11.4-8.7-20.6-19.5-20.5-5.1 0-11.9 2.8-14.4 5.8-.8.9-2.1 1.6-3.1 1.6s-2.3-.7-3.1-1.6c-3.5-4.2-13.8-7.1-19.1-5.4zm-.3 76.1c-6 1.5-21.6 4.9-34.5 7.4-12.9 2.5-24.5 4.9-25.6 5.3-1.2.4-5.8 5.2-10.3 10.7-4.4 5.5-10.2 12.4-12.8 15.3-2.7 3.1-4.2 5.6-3.7 6.1s8.3 2.6 17.4 4.6c9.1 2 17.6 4.5 18.9 5.4 1.5 1 5.3 8.1 10.7 20.1 4.5 10.2 8.8 18.5 9.5 18.5 2.7 0 25.6-41.2 33.4-60 5.2-12.4 11.5-31.2 11.5-34.1 0-3-.3-2.9-14.5.7zm30.5-.8c0 3 6.2 21.6 11.5 34.2 7.8 18.8 30.7 60 33.4 60 .7 0 5-8.3 9.5-18.5 5.4-12 9.2-19.1 10.7-20.1 1.3-.9 9.8-3.4 18.9-5.4 9.1-2 16.9-4.1 17.4-4.6s-1-3-3.7-6.1c-2.6-2.9-8.4-9.8-12.8-15.3-4.5-5.5-9.1-10.3-10.3-10.7-1.1-.4-10.6-2.4-21.1-4.4-10.4-1.9-25.7-5.1-34-7.1-8.2-1.9-16-3.8-17.2-4-1.9-.4-2.3-.1-2.3 2z"/>
  <path fill="rgba(255,255,255,0.8)" d="M7.6 158c-3.9 4.3-4.5 7-2.1 9.3.8.9 8.7 3.2 17.5 5.3 8.7 2.1 16.4 4 17 4.4.6.4 4.8 8.9 9.4 19.1 6.9 15.3 8.8 18.6 10.9 19.3 3 1.1 4.9-.2 9.2-6.4l2.7-3.8-9.3-20.7c-5.1-11.4-10-21-10.9-21.5-1.9-1-36.5-9-38.9-9-1 0-3.5 1.8-5.5 4zm222.4.4c-9.6 2.3-18 4.5-18.6 4.8-.6.4-5.2 10-10.3 21.3l-9.3 20.7 2.7 3.8c4.3 6.2 6.2 7.5 9.2 6.4 2.1-.7 4-4 10.9-19.3 4.6-10.2 8.8-18.7 9.4-19.1.6-.4 8.3-2.3 17-4.4 16.1-3.8 19-5.1 19-8.7 0-3.1-6.8-9.9-9.9-9.8-1.4 0-10.5 2-20.1 4.3z"/>
</svg>
