<svg version="1.0" xmlns="http://www.w3.org/2000/svg" viewBox="0 0 264 216">
  <path fill="rgba(255,255,255,0.8)" d="M195.2 10.2c-2.7 5.7-7.9 16.9-11.7 25-3.7 8.2-7.3 14.8-7.9 14.8-.6 0-6.3-5.2-12.6-11.5-8.6-8.6-12.1-11.5-14-11.5-3.6 0-125 121.3-125 125 0 3.6 60.4 64 64 64 3.7 0 125-121.4 125-125 0-1.9-2.9-5.4-11.5-14-6.3-6.3-11.5-12-11.5-12.6 0-.6 11.1-6.2 24.7-12.6 13.6-6.3 24.9-12 25.1-12.6.2-.7-1.7-1.4-4.8-1.8-2.9-.4-5.4-1.3-5.7-1.9-.2-.7.7-3.1 2.1-5.4 1.4-2.2 2.6-4.3 2.6-4.6 0-1.3-3.6 0-16.8 6.1-7.8 3.7-14.5 6.4-14.9 6.1-.3-.4 2.4-7.1 6.1-14.9C214.5 9.6 215.8 6 214.5 6c-.3 0-2.4 1.2-4.6 2.6-2.3 1.4-4.7 2.3-5.4 2.1-.6-.3-1.5-2.8-1.9-5.6-.4-2.8-1.1-5.1-1.7-5.1-.5 0-3.1 4.6-5.7 10.2zm-25.1 59.4c3.7 3.4 3.2 9.9-1 13.1-2.7 2.1-7.9 1.5-10.6-1.2-5.7-5.6-.9-15.4 6.9-14 1.6.3 3.8 1.2 4.7 2.1z"/>
</svg>
