<svg version="1.0" xmlns="http://www.w3.org/2000/svg" viewBox="0 0 264 216">
  <path fill="rgba(255,255,255,0.8)" d="M127.1 18.4c-8.9 4.9-5.3 18.6 4.9 18.6 3.3 0 4.8-.6 7.1-2.9 8-8.1-2-21.2-12-15.7zm1.2 27.6c-3.5 1.4-5 4.9-6.2 14.4-4.6 34.4-24.1 54.1-53.6 54-14.9-.1-28.5-5.4-40.4-15.8-7.3-6.3-11.8-7.4-15.9-3.6-4.1 3.8-3.9 5.8 4.2 37.9 7 28 7.9 30.8 10.7 33.3 1.6 1.6 3.6 2.8 4.3 2.8.8 0 6.6-1.3 12.8-2.9 53.5-13.8 122.1-13.8 175.6 0 6.2 1.6 12 2.9 12.8 2.9.7 0 2.7-1.2 4.4-2.8 2.7-2.5 3.6-5.2 10.5-32.9 4.1-16.6 7.5-31.1 7.5-32.2 0-1.1-1.2-3.3-2.6-5-2-2.4-3.4-3.1-6.3-3.1-3.1 0-4.8.9-10 5.4-12.2 10.6-25.7 15.9-40.6 16-29.6.1-49-19.6-53.7-54.6-.9-6.6-1.8-9.8-3.3-11.5-2.3-2.6-7-3.7-10.2-2.3zm1.4 71.2c1.6.8 3.2.7 6.3-.6 3.6-1.4 4.5-1.4 7.4-.2 5.8 2.4 7.3 8.3 3.7 14.2-2 3.3-13.1 12.4-15.1 12.4s-13.1-9.1-15.1-12.4c-5.9-9.6 2.5-18.4 12.8-13.4zm-37 12c2.9 2.7 3.1 8 .3 10.8-4.3 4.3-13 .9-13-5 0-6.9 7.8-10.4 12.7-5.8zm88.8.3c4.9 4.8 1.7 12.5-5.2 12.5-6.6 0-9.8-7.7-5.1-12.7 2.9-3.1 7.2-3 10.3.2zm-134.1 6.6c3.7 1.7 5.4 6.5 3.5 9.8-2.2 3.9-6.2 5.5-9.6 3.9-4.2-2-5.9-5.8-4.4-9.5 1.9-4.6 6-6.2 10.5-4.2zm176 0c3.7 1.7 5.4 6.5 3.5 9.8-2.2 3.9-6.2 5.5-9.6 3.9-4.2-2-5.9-5.8-4.4-9.5 1.9-4.6 6-6.2 10.5-4.2zM4.4 68.8C-3.8 75.4.5 87 11.1 87c4.7 0 8.9-4.7 8.9-10 0-8.1-9.6-13.1-15.6-8.2zm242.5 1.1c-5.6 5.6-2.9 15.3 4.7 16.7 8.4 1.6 15.1-6.5 11.3-13.9-3.2-6.3-11.1-7.7-16-2.8zM95.5 170.1c-30.9 3-61.7 9.2-64.7 12.9-2.2 2.7-2.3 5.9-.4 10.5 2.4 5.8 4.8 6.2 18.3 3.2 50.3-11.1 110.6-11.5 160.3-1.2 19.7 4.1 19.5 4.1 22.4 1.2 3.2-3.2 4.4-9.2 2.5-12.6-1.8-3.1-4.7-4.2-21.5-7.6-26.8-5.4-40.5-6.7-75.4-7-17.9-.2-36.5.1-41.5.6z"/>
</svg>
