<svg version="1.0" xmlns="http://www.w3.org/2000/svg" viewBox="0 0 264 216">
  <path fill="rgba(255,255,255,0.8)" d="M169 1.7c-3.1 1.1-7.3 4.4-14.2 11.1-5.4 5.2-9.8 10-9.8 10.6 0 .7 1.8 3 4 5.1 4.4 4.3 5 7.3 2.2 9.8-2.9 2.6-5.5 2-9.7-2.3-2.1-2.2-4.4-4-5-4-1.6 0-7.5 6.3-7.5 8 0 .8 1.9 3.3 4.2 5.7 3.7 3.8 4 4.5 3 6.7-.6 1.4-2 3-3.1 3.6-1.7.9-2.7.5-5.8-2.3-7.3-6.3-6.7-6.2-11.2-2.1-2.3 2-4.1 4-4.1 4.5s1.8 2.9 4.1 5.4c4.7 5.1 4.9 8.1.7 10.5-2.7 1.4-2.9 1.4-7.1-2.8-2.3-2.3-5-4.2-5.8-4.2-2.3 0-18.3 16.8-20.9 22-3.2 6.1-3.3 15.7-.2 22 3.2 6.8 44.3 47.3 49.7 49.1 6.2 2.1 15.2 1.6 20.5-1 5.1-2.6 22-18.8 22-21 0-.9-1.9-3.5-4.2-5.8-4.2-4.2-4.2-4.4-2.8-7.1 2.4-4.2 5.4-4 10.5.7 2.5 2.3 4.8 4.1 5.3 4.1.4 0 2.5-1.8 4.7-4l3.8-3.9-4.2-4.6c-5-5.4-5.3-9-.9-11.5 2.7-1.4 2.9-1.4 7.1 2.8 2.3 2.3 5 4.2 5.8 4.2 1.7 0 7.9-6 7.9-7.6 0-.5-1.8-2.8-4-4.9-4.4-4.3-5-7.3-2.2-9.8 2.9-2.6 5.5-2 9.7 2.3 2.1 2.2 4.4 4 5.1 4 .6 0 5.4-4.4 10.6-9.8C237.3 74.8 240 69.8 240 61.5c0-4.9-2.3-12-5-15.5l-1.9-2.5-6.5 6.3c-6.6 6.4-7.2 6.6-10.8 3.4-3-2.6-2.1-5.4 3.9-11.4l5.7-5.8-2.9-3c-1.6-1.6-3.4-3-4-3-.6 0-3.5 2.5-6.5 5.5s-6.2 5.5-7 5.5c-2 0-6-4.1-6-6.1 0-.8 2.5-3.9 5.5-6.9 3-3 5.5-5.9 5.5-6.5 0-.6-1.4-2.4-3-4l-3-2.9-5.8 5.7c-6 6-8.8 6.9-11.4 3.9-3.2-3.6-3-4.2 3.4-10.8l6.3-6.5L194 5c-6.3-4.8-16.7-6.2-25-3.3zm13.4 60.9c4.3 5.2 7.6 9.8 7.3 10-.2.3-5.6 2.1-11.8 4-6.3 1.9-11.7 3.8-12.2 4.3-.4.4 2.4 3.2 6.3 6.1 3.8 3 7 5.7 7 6.1 0 1.2-7.1 1.8-31.3 2.4-18.2.5-22.8.3-22.5-.7.3-.7 6-4.3 12.9-8 6.8-3.7 12.5-7.1 12.7-7.6.1-.4-1.6-1.8-3.8-3.1-2.3-1.3-3.9-2.8-3.7-3.4.3-1 29.3-19.5 30.7-19.6.3-.1 4.1 4.2 8.4 9.5z"/>
  <path fill="rgba(255,255,255,0.8)" d="M72 53.7C57.8 68.1 52.8 73.8 50.7 78.2c-7 14.7-6.1 29.6 2.9 43.3 1.8 2.7 16.9 18.5 33.6 35.1 25 24.8 31.3 30.5 36 32.7 15.5 7.3 32.3 5.8 45.1-4.2 2.9-2.2 12.3-11.1 21-19.9 17.8-17.9 18.4-19.2 12.4-25-6-5.8-7.1-5.2-25.2 12.7-18.8 18.7-22.6 21.1-34.1 21.1-12.2 0-14.9-1.9-45-32.2-16.4-16.5-27.1-28-28.5-30.8-2-3.8-2.4-6-2.4-13.5 0-12.4 1.4-14.6 20.6-34 18-18.2 18.6-19.5 12.6-25.3-6.1-6-6.9-5.5-27.7 15.5zm-8.2 105.7c-3.1 2.9-6.9 5.6-8.4 5.9-1.5.3-8.2-.8-14.8-2.4-23.2-5.7-22.9-4.7 9 27.2C64.2 204.7 76.3 216 77.3 216c3 0 3.1-3 .3-14.4-1.4-6.1-2.6-12.7-2.6-14.7 0-3.7 3.3-9.1 8.4-13.8 1.4-1.4 2.6-3.2 2.6-4.1 0-2-13-15-15-15-.8.1-4 2.5-7.2 5.4z"/>
</svg>
