<svg version="1.0" xmlns="http://www.w3.org/2000/svg" viewBox="0 0 264 216">
  <path fill="rgba(255,255,255,0.8)" d="M132.2 1.1C102 4.6 80.5 16.6 72.5 34.5c-6.7 15-5.9 35.1 2.1 51.5 2.8 5.8 5.7 9.5 12.3 16 7.3 7.2 10.3 9.4 19.6 14.1 6.1 3.1 12 5.8 13.2 6.1 2.1.6.6 3.4-21.8 41-13.3 22.1-25.3 41.5-26.7 43.1-1.5 1.5-4.2 3.2-6.2 3.7-1.9.5-5.1 1.3-7 1.7-2 .5-3.5 1.5-3.5 2.3 0 1.3 5 1.5 35 1.5 30.4 0 35-.2 35-1.5 0-1-1.6-1.8-4.8-2.4-3.7-.7-4.7-1.3-4.4-2.6.2-.9 9.1-16.2 19.8-34l19.4-32.5.3 31.1c.1 18.6-.2 32.2-.8 33.8-.5 1.4-1.9 2.7-3.2 3-1.3.2-4.5.8-7.3 1.3-3.4.5-5 1.3-5 2.3 0 1.3 4.7 1.5 36 1.5s36-.2 36-1.5c0-1-1.6-1.8-5-2.3-2.7-.5-6.1-1.1-7.5-1.5l-2.5-.7-.3-89.5c-.2-65.6 0-91 .9-95 1.6-7.9 4.4-12.8 10.2-18.1 2.8-2.7 4.7-5.1 4.3-5.8-.9-1.3-66.8-1.3-78.4 0zm22 34.6c.5 1.8.7 15.5.6 30.5l-.3 27.3-6.5-.3c-17-.6-32.6-9.5-38.7-22-3.9-7.9-4.4-20-1.1-25.7 5.1-8.8 17.9-13.6 35.2-13.2l10 .2.8 3.2z"/>
</svg>
