<svg version="1.0" xmlns="http://www.w3.org/2000/svg" viewBox="0 0 264 216">
  <path fill="rgba(255,255,255,0.8)" d="M131.3 1.5c-6.6 1.8-11.7 4.4-17.7 8.9-3.8 3-5.5 3.6-9.4 3.6-11.6 0-23.7 5.3-32.7 14.4-6.6 6.6-10.6 13.8-12.9 23.3-1.2 4.9-2.3 6.7-7.4 11.9C42.1 72.9 37 85.5 37 98.9c0 4.3-.4 4.9-8.4 13-4.6 4.7-9.3 10.6-10.5 13-6.6 12.9-1.8 27.9 10.9 34.4 4.9 2.5 6.3 2.8 13.6 2.5l8.1-.3 4.4 5.5c5 6.2 12.9 11.9 19.8 14.4 3.7 1.3 5.2 2.6 7.6 6.7 10.8 18.4 34 26.9 55.1 20.2 5.1-1.6 5.7-1.6 10.7 0 21.3 6.7 43.3-1.3 55.4-20.1 1.9-2.9 4.2-5.6 5.1-5.9 11.5-3.7 23.3-14 28.2-24.5 4-8.6 5.7-18.9 4.4-26.9-1-6-.9-6.5 2.1-12.4 9.5-18.2 6-39.8-8.8-55.3-5.3-5.6-6.5-7.5-7.1-11.2-.4-2.5-2.2-7.7-4.1-11.6C216 24.9 198.7 14 181.4 14c-3.7 0-5.4-.7-8.7-3.4-11.5-9.3-27.5-12.8-41.4-9.1zm-12.5 69c16.7 7.5 24.4 27.6 16.8 44.2C126.4 135 99 142.1 88.1 127c-8-11.1-2.7-26.7 10.4-30.5 5.9-1.7 9.7-.9 11.4 2.4 2.6 4.7-.1 9.8-5.9 11-4.3.8-6.4 4.2-4.8 7.7 1.3 2.9 3.8 3.8 8.1 2.9 5.2-1.1 10.3-5 12.6-9.7 6.2-12.9-2.5-26.1-17.2-26.1-11.7 0-24.5 9.6-27.9 21-1.4 4.9-2.5 5.4-3.4 1.7-1.2-4.6.3-15 2.9-20.7 7.7-16.9 27.2-24 44.5-16.2zM39 124.4c2.1 1.2 3 1.2 6.2-.1 3.1-1.2 4.1-1.3 5.3-.3 4.1 3.4-1 9-8.2 9-7.6 0-12.5-3.9-10.3-8.1 1.2-2.2 3.5-2.4 7-.5z"/>
  <path fill="rgba(255,255,255,0.8)" d="M60 193.5c-7.1 10.6-6.8 15.2 1.4 20 4.7 2.8 6.4 3 9.9 1.4 2.1-.9 10.7-12.3 10.7-14.2 0-.4-1.7-3.2-3.7-6.3-3.4-5.2-8-8.4-11.9-8.4-.7 0-3.6 3.4-6.4 7.5zm154.3-5.7c-2.8 1.5-10.3 10.9-10.3 13 0 1.6 9 13.1 11.1 14.2 3.1 1.7 7.9.4 12.4-3.4 5.7-4.8 5.4-8.4-1.1-17.9-5.5-7.8-7.1-8.6-12.1-5.9z"/>
</svg>
