<svg version="1.0" xmlns="http://www.w3.org/2000/svg" viewBox="0 0 264 216">
  <path fill="rgba(255,255,255,0.8)" d="M125.4 1.4c-.6 1.7 4.1 20.5 5.5 21.9.8.8 1.4.8 2.2 0 1.4-1.4 6.1-20.4 5.4-22.1-.6-1.8-12.4-1.7-13.1.2zm-16.6 5.7c-2.7 1.7-4.8 3.7-4.8 4.4 0 .8 3.5 4.5 7.8 8.4 11.6 10.7 13.1 9.6 7.4-5.3-2-5.5-4.2-10.1-4.7-10.3-.6-.1-3.1 1.1-5.7 2.8zm39.8-2.3c-.2.4-2.1 5.2-4.1 10.5-3.5 9.4-3.8 12.1-1 11.5 2.2-.5 16.5-13.8 16.5-15.3 0-1.4-8-7.5-9.9-7.5-.5 0-1.2.4-1.5.8zM83 36.2c-2.5 1.4-5.7 4.2-7.2 6.4-1.6 2.1-6.6 14.5-11.3 27.4-12.1 33.1-13.6 37-14.5 37-.4 0-2.9-4.5-5.6-10.1-2.7-5.6-5.7-10.7-6.8-11.5-3.1-2.2-9.1-1.8-12.1.8-5.4 4.7-4.9 6.7 8.9 36.1 7.8 16.7 12.6 28.1 12.6 30 0 1.8-4.5 15.6-10.1 30.7-9.4 25.5-10 27.7-8.7 30l1.4 2.5 26.5.3c20.2.2 26.9-.1 28.1-1 .9-.7 3.9-7.8 6.8-15.8s5.8-15.4 6.5-16.5c.7-1.2 3.3-2.5 6.4-3.2 6-1.4 11.7-5.2 15.3-10.2 3-4.3 16.9-41.8 19.1-51.6 6-27 .4-51.2-15.6-68.1-9.1-9.6-18.2-14.6-28.2-15.1-6-.4-7.6-.1-11.5 1.9z"/>
  <path fill="rgba(255,255,255,0.8)" d="M162.9 35c-5.8 1.7-14.8 7.4-19.8 12.4l-5.1 5.2 3.5 7.8c5.8 12.4 7.7 21.2 7.9 35.6.1 15.2-1.2 22.3-7.6 40.6l-4.9 14.1 2.7 7.4c4.5 12.6 10.6 18.9 20.5 21.2 3.1.7 5.7 2 6.4 3.2.7 1.1 3.6 8.5 6.5 16.5s5.9 15.1 6.8 15.8c1.2.9 8.4 1.2 27.9 1.2H234l1.6-2.5c1.7-2.5 1.5-3.2-7.1-26.8-4.8-13.3-9-24.4-9.2-24.6-.2-.3-1 .5-1.9 1.7-2.1 3-6.1 2.9-7.5-.2-1-2.1-.7-2.9 1.9-6.3 1.7-2.1 9.3-16.9 16.8-32.8 14.9-31.8 15.3-33.5 9.9-38.3-3-2.6-9-3-12.1-.8-1.1.8-4.1 5.9-6.8 11.5S214.4 107 214 107c-.9 0-2-2.7-14.4-37-4.8-12.9-9.8-25.3-11.4-27.4-5-7.3-15.8-10.5-25.3-7.6z"/>
</svg>
