<svg version="1.0" xmlns="http://www.w3.org/2000/svg" viewBox="0 0 264 216">
  <path fill="rgba(255,255,255,0.8)" d="M56.8 1.1c-2.1 1.2-2.5 2.7-8.3 30.4-2.7 12.5-5.4 22.9-6.3 24.1-.9 1.3-6.2 5.6-11.7 9.7C13 78.3 10.2 82 13.1 88c2.2 4.3 25.1 29 27.5 29.6 2.8.7 5.1-.5 12.8-6.8 31.9-25.9 75.4-34.3 115.3-22.2 11.4 3.4 28.6 12.2 38.4 19.7 11.7 8.9 13.6 10 16.2 9.3 2.4-.6 26-25.9 27.8-29.9 2.6-5.7-.5-9.6-17.6-22.4-5.5-4.1-10.7-8.4-11.6-9.6-1-1.3-4-12.9-6.9-26.7-2.9-13.5-5.6-25.3-6.1-26.2-.5-1-2.1-2.1-3.5-2.4-2.2-.6-6.3 1.8-26.1 15.2l-23.5 15.8-23.6.1-23.7.1-23.4-15.8C72.2 7.1 60.9 0 60.1 0c-.9 0-2.4.5-3.3 1.1z"/>
  <path fill="rgba(255,255,255,0.8)" d="M116.5 98.7c-18.8 2.9-37 10.7-53.3 22.7-6.5 4.8-8.7 8.4-7.7 12.4.5 2.1 15.9 20.1 22.2 25.9 3.4 3.2 6.5 2.9 12.2-1.2 24.7-17.8 59.5-17.8 84.2 0 6.1 4.4 9.2 4.5 13 .4 11.7-12.5 19.8-21.7 20.8-23.7 2.1-4-.2-8.5-7-13.6-13.2-9.9-25-15.7-41.1-20.2-7.8-2.2-11.9-2.6-24.8-2.9-8.5-.2-16.8-.1-18.5.2z"/>
  <path fill="rgba(255,255,255,0.8)" d="M117.8 161.6c-8.4 2-19.2 7.7-20.6 10.9-2.6 5.6-1.8 6.8 13.9 24.1 8.4 9.1 16.2 17.2 17.5 18.1 4.7 3 6.1 1.8 33.6-28.4 8.5-9.2 7.6-14.4-3.3-19.9-3.8-1.9-9.7-4.1-13.1-4.9-7.8-1.8-20.4-1.8-28 .1z"/>
</svg>
