<svg version="1.0" xmlns="http://www.w3.org/2000/svg" viewBox="0 0 264 216">
  <path fill="rgba(255,255,255,0.8)" d="M102.7 1.5c-2.1.8-7.6 4-12.3 7.2-4.7 3.2-19.6 13.1-33 21.9-13.5 8.9-25.9 17.4-27.5 19-3.9 3.7-6.3 12-5.4 18.2 1 6.5 3.8 13.6 8.5 21.2l4 6.5v40c0 24.5.4 41.4 1 43.7 1.7 5.9 6.9 12 13 15 3.9 1.9 16.2 5 43 10.8 57.8 12.5 53.2 11.8 58.8 9.4 4-1.7 49.3-32.1 64.8-43.5 9-6.6 8.8-5.7 9.4-51 .4-33 .7-39.9 2-41.5.8-1 3.1-3.8 5.1-6.2 12.4-14.4 3.6-41.8-15.9-49.3-6-2.3-12.8-2.7-25.2-1.3-29.7 3.3-37.3 1.7-57.1-11.8-13.2-8.9-24-11.6-33.2-8.3zm-50 60.6c1.5.5 6.9 3.4 11.8 6.4 19.1 11.5 30.8 14 61.6 13.2 19.1-.5 22-.4 25 1.1 8 4 10.4 14.4 5.1 21.8-1.6 2.1-3.6 4.5-4.6 5.3-4 3.3-4.1 4.6-4.6 46.2-.5 38.2-.6 40.8-2.4 42.8-1.2 1.3-3.1 2.1-5.2 2.1-4.5 0-80.8-16.6-83.3-18.2-1.1-.6-3-3-4.3-5.2-2.3-4.1-2.3-4.5-2.8-43.8l-.5-39.7-4.1-5.8C38.6 80.1 37 76.6 37 72.5c0-9 7-13.7 15.7-10.4z"/>
  <path fill="rgba(255,255,255,0.8)" d="M125.5 153.4c-3.7 5.5 5.6 14.1 10.3 9.4 2-2 1.4-6.7-1.3-9.3-3.1-3.2-7-3.2-9-.1zM111 164c-4.8 4.8 0 14 7.4 14 7.1 0 8.6-8.3 2.4-13.5-3.6-3-7.1-3.2-9.8-.5zm15 18.5c-2.8 3.4 1.7 9.4 6 8 4.1-1.3 1.3-9.5-3.2-9.5-.9 0-2.1.7-2.8 1.5z"/>
</svg>
