<svg xmlns="http://www.w3.org/2000/svg" version="1.0" viewBox="0 0 264 216">
  <path fill="rgba(255,255,255,0.8)" d="M128 2.9c-2.5 4.7-.3 12.1 3.5 12.1 2.4 0 4.5-3.1 4.5-6.6 0-4.8-1.6-7.4-4.5-7.4-1.4 0-2.9.8-3.5 1.9zM89 10.6c-1.6 1.8-1.4 2.2 9.3 32.8 4.4 12.3 8 21.2 9 21.8 2.2 1.2 5.7-.7 5.7-3.2S97.3 14.2 95.4 11.2c-1.7-2.6-4.6-2.9-6.4-.6zM167.7 11.2c-2 3-17.7 48.3-17.7 50.8 0 2.4 2.9 4 5.5 3 2.8-1.1 20.4-51.4 18.8-53.9-1.6-2.6-5-2.5-6.6.1zM128.7 24.8c-1.4 1.6-1.7 4.4-1.7 18.6 0 9.6.4 17.6 1 18.7.6 1.1 2.1 1.9 3.5 1.9s2.9-.8 3.5-1.9c.6-1.1 1-9.1 1-18.9 0-15.1-.2-17.1-1.8-18.5-2.4-2.2-3.5-2.1-5.5.1zM56.2 32.2c-2 2-1.4 5.2 1.7 8.6 3.5 3.7 5.4 4 7.5 1 1.7-2.4 1.2-3.8-2.8-8.1-2.7-2.9-4.5-3.4-6.4-1.5zM200.4 33.7c-4 4.3-4.5 5.7-2.8 8.1 2.1 3 4 2.7 7.5-1 3.1-3.4 3.7-6.6 1.7-8.6-1.9-1.9-3.7-1.4-6.4 1.5zM70.8 49.1c-3.1 1.7-2 4.5 4.8 12.8 7.1 8.6 10.2 10.2 12.4 6 1.3-2.4-.8-6-8.8-14.7-5.2-5.5-5.7-5.7-8.4-4.1zM183.8 53.2c-8 8.7-10.1 12.3-8.8 14.7 2.2 4.2 5.3 2.6 12.4-6 6.9-8.5 7.9-11.1 4.7-12.9-2.9-1.5-3-1.4-8.3 4.2zM26 63.5c0 5.2 4 13.2 8.9 17.8 8.1 7.6 19.2 12.1 37.5 15.2 8.5 1.4 10.5 2.4 10.6 5.1 0 2.8-2.7 3.5-9.6 2.4-9.5-1.5-22-4.8-27.3-7.1-5-2.2-5.6-2-4.7 1.5 3 11.9 23.6 21.6 46.1 21.6 6.8 0 9.1 1.4 8 5-.6 1.8-1.5 2-8.1 2-8.6 0-20-1.6-25.5-3.5-5.7-2-5.7-.2-.2 5.3 11 10.6 30.3 16.1 57.1 16.2h8.2v-25c0-27.2-.1-27.9-5.7-33.2-4.5-4.4-9.3-5.8-19-5.8-27.3 0-55.1-6.5-70.1-16.5a73 73 0 0 0-5.8-3.5c-.2 0-.4 1.1-.4 2.5zM230.5 64.6C216.3 74.3 187.9 81 160.7 81c-9.7 0-14.5 1.4-19 5.8-5.6 5.3-5.7 6-5.7 33.2v25h8.3c26.7-.1 46-5.6 57-16.2 5.5-5.5 5.5-7.3-.2-5.3a95.6 95.6 0 0 1-25.5 3.5c-6.6 0-7.5-.2-8.1-2-1.1-3.6 1.2-5 8-5 22.5 0 43.1-9.7 46.1-21.6.9-3.5.3-3.7-4.7-1.5-5.3 2.3-17.8 5.6-27.3 7.1-6.9 1.1-9.6.4-9.6-2.4.1-2.7 2.1-3.7 10.6-5.1 25.1-4.3 39.7-12.5 44.4-25.1 2-5.5 2.6-10.5 1.3-10.3-.5.1-3 1.6-5.8 3.5zM42.6 140.9c-9.5 4-11.4 5.8-9.6 9.1 1.5 2.7 3.8 2.5 12.8-1.2 11.1-4.5 13.1-6.7 9.6-10.2-2.1-2.1-2.5-2-12.8 2.3zM207.6 138.6c-3.5 3.5-1.5 5.7 9.6 10.2 9 3.7 11.3 3.9 12.8 1.2 1.8-3.3-.2-5.1-10-9.2-10.6-4.4-10.3-4.3-12.4-2.2zM74.3 156.7c-5.2 5.7-6.4 9-3.8 11 2.8 2 3.4 1.7 8.6-4 5.2-5.6 6.1-9 3-10.7-2.9-1.5-3-1.4-7.8 3.7zM180.8 153.1c-3 1.7-2 5.1 3.1 10.6 5.2 5.7 5.8 6 8.6 4 2.6-2 1.4-5.3-3.8-11-4.6-5-5.2-5.2-7.9-3.6zM103.6 160.2c-.8 1.3-4.7 11.7-8.7 23.2-7.6 21.8-7.8 23.7-3.1 24.4 3 .5 4.1-1.8 12.3-25.2 7.6-21.8 7.8-23.7 3.1-24.4-1.3-.2-2.6.5-3.6 2zM153.2 159.2a4 4 0 0 0-1.2 2.4c0 2.1 14.8 43.5 16.1 45 .7.8 2.1 1.4 3.2 1.2 4.6-.7 4.3-2.7-3.2-24.4-4-11.5-7.9-21.9-8.7-23.2-1.6-2.4-4.3-2.9-6.2-1zM129 161c-1.8 1.8-2 3.4-2 15.8 0 12.2.2 14.1 1.8 15.5 2.4 2.2 3.5 2.1 5.5-.1 1.4-1.5 1.7-4.2 1.7-15.1 0-7.3-.4-14-1-15-1.5-2.9-3.8-3.3-6-1.1zM58 176.2c-3.3 3.5-3.8 6.9-1.5 8.8 2.1 1.7 4.9.4 7.8-3.7 2.4-3.3 2.5-4 1.3-5.8-2.1-3.1-4.3-2.9-7.6.7zM197.6 175.2c-1.7 2.4-1.2 3.8 2.8 8 2.7 3 4.5 3.5 6.4 1.6 2-2 1.4-5.2-1.7-8.6-3.5-3.7-5.4-4-7.5-1zM128.6 203.6c-1.8 1.8-2.1 7.6-.6 10.5 1.4 2.5 5.6 2.5 7 0 2.5-4.7.3-12.1-3.5-12.1-.7 0-2.1.7-2.9 1.6z"/>
</svg>
