<svg version="1.0" xmlns="http://www.w3.org/2000/svg" viewBox="0 0 264 216">
  <path fill="rgba(255,255,255,0.8)" d="M183.8 1.2c-3.8 3-25 44.9-29.2 57.7-4.5 13.6-4.4 20.2.6 30.8 4.7 10 17 18.5 28.8 19.9 15 1.7 30.8-7.7 37-22 4.8-11.2 3.6-20-5.1-40.4-5.6-13.1-21.2-42.5-24-45.3-2.2-2.2-5.8-2.5-8.1-.7zm-87 33c-3.9 3.2-33.1 57.7-43.1 80.8-12 27.6-14.6 41-10.8 55.9 3.8 15.1 11.7 26.4 24.7 35 23.4 15.7 54 12.6 73.9-7.3 15.2-15.3 20.7-34.8 15.5-55.1-4.3-16.6-17.4-45.6-36.5-80.4C106.1 36.8 103.6 33 100.7 33c-1.3 0-3 .6-3.9 1.2zm47.7 99.6c11.1 19.7 7.5 42.7-8.9 57.9-12.2 11.3-28.6 15.7-45.9 12.2-7-1.4-7.2-2.5-1.7-9.4 6.1-7.7 5.5-8.7-3.6-5.8-3 .9-5.7 1.4-6 1-1.1-1.1 2.5-13 5.6-18.5 6.4-11.1 14.8-16.3 30.2-18.6 16.2-2.3 23.6-7.5 24.5-17.4.9-8.8 1.6-9 5.8-1.4z"/>
</svg>
