<svg version="1.0" xmlns="http://www.w3.org/2000/svg" viewBox="0 0 264 216">
  <path fill="rgba(255,255,255,0.8)" d="M99 1.8c-4.2 2.3-9.7 12.3-10.6 19.3-.6 4.1-.4 4.8 1.3 5.3 1.1.4 3.2.2 4.7-.4 3.6-1.3 7.2.5 8.5 4.2.8 2.2 1.5 2.8 2.8 2.4 3.4-1 10.8-2.4 16.6-3.1 5.6-.6 5.7-.7 5.1-3.3-1.2-5.7-7.5-16.9-11.7-21.1-5.5-5.3-11-6.4-16.7-3.3zM48.6 26c-3.5 1.1-6.3 3.6-8.3 7.4-4 7.6 3.6 28.6 12.4 34.3 2.5 1.6 2.6 1.6 4.6-1.3 1.2-1.6 4.8-5.7 8.1-9.1l5.9-6.3-2.7-2.1c-3.8-3-3.7-8.4.3-10.7 3.6-2 4.7-5.3 2.3-6.7-7.5-4.5-17.6-6.9-22.6-5.5zM82 29.1c-4 1.6-7 5-7 8s1.9 7.9 3 7.9c.5 0 3.8-1.8 7.6-4s7.2-4.1 7.7-4.3c1.7-.5-2.3-6.8-4.9-7.7-3-1.2-3.2-1.2-6.4.1z"/>
  <path fill="rgba(255,255,255,0.8)" d="M95.3 28.7c-1.7.6 1.2 6.3 3.1 6.3 2.1 0 2.6-2.5 1-4.9-1.5-2.2-2-2.3-4.1-1.4zM121 33c-21.5 2.7-43.9 14.4-56.2 29.3-31.8 38.5-32.5 93.1-1.5 126.3 11.7 12.5 24.7 19.8 43.8 24.5 12.5 3.1 37 3.3 49.9.6 28-6.1 48.4-21.5 59.6-45.2 7-14.7 8.9-23.5 8.8-40.5-.1-12.3-.5-16-2.7-24.2-9.6-36.3-35.4-62.3-68.4-69.2-8.9-1.9-25.1-2.7-33.3-1.6zM99 99.5c0 1.1 1.4 4 3.1 6.5 2.8 4.1 3 5.1 2.7 10.7-.9 14.8-11.6 16.8-12.6 2.3-.3-4.6 0-6.9 1.7-10.3 1.1-2.4 2.1-5.7 2.1-7.4 0-4.4 1-6.9 2.1-5.1.5.7.9 2.2.9 3.3zm68.4.5c.3 2.3 1.3 4.3 2 4.6 4.3 1.6 6.3 15.3 3.1 21.4-2.2 4.3-6.1 3.9-8.9-1-2.5-4.2-2.8-14.1-.6-18 .8-1.4 1.3-2.9 1.1-3.5-.4-1.6.9-7.5 1.8-7.5.5 0 1.1 1.8 1.5 4zm-28.7 42.4c3.8 4.1 5.9 12.6 4.4 18.1-.6 2.3-.6 4.7 0 7 1.5 5.3-.5 13.8-4.3 18.1-2.6 2.9-3.6 3.4-7.4 3.4-6.5 0-8.8-2.6-8.2-9.6.4-4.2 1.3-6.7 4.1-10.6 3.6-5.2 3.6-5.3 1.8-7.3-4.9-5.3-7.4-14-5.5-19 .9-2.3 6.3-4.6 9.4-3.9 1.4.2 3.9 2 5.7 3.8zM81.8 147c12.3 7.5 7.6 26-6.6 26-8.5 0-14.2-5.6-14.2-13.9 0-10.9 11.6-17.7 20.8-12.1zm117.8.5c1.4.9 3.5 3.7 4.5 6.1 2.7 6 1.7 10.7-3.1 15.6-3.5 3.5-4.2 3.8-9.3 3.8-4.8 0-6.1-.4-9.1-3-10.8-9.5-4-25.9 10.1-24.6 2.4.2 5.4 1.1 6.9 2.1zM70.2 40.9c-1.8 1.1-1.1 5.1 1 6.5 2.9 1.8 4.1-.5 2.2-4.2-.8-1.8-1.6-3.2-1.7-3.2-.1 0-.8.4-1.5.9z"/>
</svg>
