<svg version="1.0" xmlns="http://www.w3.org/2000/svg" viewBox="0 0 264 216">
  <path fill="rgba(255,255,255,0.8)" d="M148.3 2.7c-1 1.6-2.3 3.2-3 3.6-.7.4-1.3 1.6-1.3 2.7 0 4.4-23.6 40.7-35.2 54-1.2 1.4-2.1 2.8-2 3.2.1.5-.1.8-.6.8-1.8 0-5.2 12.8-5.2 19.8 0 2.7.8 9.5 1.8 15.3 1 5.7 1.8 12.1 1.6 14.2-.1 2.2.2 5.3.7 7 .5 1.7.7 3.2.5 3.4-.8.8-41.9-11.9-43.3-13.3-1.9-1.8-5.4-1.8-7.9.1-1.8 1.5-1.8 1.6 1 4.1 2 1.7 3.7 2.4 5.3 2.1 1.8-.3 44.7 11.4 45.9 12.6.2.1.8 3.4 1.4 7.2.6 3.8 1.4 7.2 1.9 7.5.4.3 1.5 5 2.4 10.4 1 5.5 2.9 12.1 4.2 14.9 1.4 2.7 2.5 5.5 2.5 6.3 0 .8.4 1.4.8 1.4s1.6 1.3 2.5 3c1 1.6 2.4 3 3 3 .7 0 2.7 1.7 4.5 3.7 7.2 8.4 14.2 17.1 14.2 17.9.1.5 1.9 2.7 4.1 4.9 3.3 3.3 4.1 3.7 5 2.5.5-.8.7-2.9.4-4.5-.3-1.7-.6-4-.5-5.2 0-1.3-.5-2.3-1-2.3-.6 0-1-10.4-1-28.5 0-31.8-.6-29.6 7.2-27.3 2.3.7 4.8 2.4 5.9 4 2.7 3.8 7 5.8 24.5 11.8 12.1 4.1 14.5 4.7 14.1 3.2-2.1-6.7-2.2-6.4.9-5.6 7.8 2 9.8-1 2.5-3.7l-4.4-1.6 3.3-2.3c2.4-1.7 2.9-2.5 1.9-3-2.5-1.3-31.3-8-34.5-8-1.7 0-4.5.5-6.2 1.1-2.4.8-4.4.7-9.1-.7l-6.1-1.7V76.9c0-36.1.4-64 .9-64.3 1.3-.8 1.9-7.7 1-10.4-1.1-2.9-2.5-2.8-4.6.5zm-.5 106.5l-.3 30.4-15.3-4.5c-9.1-2.7-15.7-5.2-16.2-6.2-.5-.8-1.2-3.8-1.6-6.5-.3-2.7-1.2-6.7-1.9-8.9-2.2-6.6-4.5-20.3-4.5-26.9 0-5.1.5-6.8 2.6-9.7 2.9-3.8 4.8-7.8 4.6-9.5-.1-.6 4.7-7.8 10.8-16 6-8.2 13.3-18.9 16.2-23.8l5.3-8.9.3 30.1c.1 16.5.1 43.7 0 60.4zm-10.5 31.9l10.7 3.2v28c0 15.8-.4 27.7-.9 27.1-7.6-8.3-15.1-17.5-15.1-18.4 0-1.2-1-2.4-7.2-9.1-3.3-3.5-5.5-10.5-6.3-20.1-.3-4-.8-9.4-1.1-12l-.5-4.7 4.8 1.4c2.6.8 9.6 2.9 15.6 4.6z"/>
</svg>
