<svg version="1.0" xmlns="http://www.w3.org/2000/svg" viewBox="0 0 264 216">
  <path fill="rgba(255,255,255,0.8)" d="M34.7 3.4c-4.7 5-7.6 19.8-10.1 51.1l-1.5 18-5.1 9.8c-9.9 18.7-13.7 34.3-12.7 52 1 19.3 7.5 33.5 21.7 47.7 21 21 51.7 31.3 97.5 32.7 64.2 2 110.3-16.9 127.5-52.2 5.5-11.3 7.3-19.7 7.3-33.5-.1-15.6-3.1-27.2-11.7-44.5-6.1-12.3-6.5-13.5-7.1-22-1-15.4-3.6-37.6-5-44.7-2.8-13.2-5.9-17.5-12-16.4-5.2 1-17.4 7.6-27.1 14.6l-8.4 6.1-9.2-1.1c-24.6-3-69.5-2.9-93.2 0l-9.2 1.2-7.5-5.6C60.3 10.1 43 1 39.4 1c-1.4 0-3.5 1.1-4.7 2.4zm49.2 91.2c3 3.9 2.8 10.3-.3 13.4-4.6 4.2-10.6 2-12.2-4.6-2.2-8.6 7.4-15.3 12.5-8.8zm106.6-.1c5.1 5 1.8 15.7-4.8 15.7-5.7 0-9.2-7.1-6.7-13.2 2.3-5.5 7.5-6.6 11.5-2.5zm-48.4 44.1c1 .9 1.9 2.6 1.9 3.7 0 3.3-3.1 8.7-6.1 10.4-2.2 1.3-2.9 2.5-2.9 4.9 0 2.6 1.2 4.3 7 9.8 3.9 3.6 7 7.2 7 8 0 3.4-2.5 2.4-9.5-3.8l-7.3-6.6-7.2 6.6c-3.9 3.6-7.7 6.3-8.3 6.1-3-1-1.3-3.9 5.8-10.2 6.5-5.8 7.5-7.2 7.5-10.1 0-2.4-.5-3.4-2-3.9-2.7-.9-7-7.3-7-10.6 0-2.8 2.3-5.4 5.5-6.2 3.9-1.1 13.6.1 15.6 1.9z"/>
</svg>
