<svg version="1.0" xmlns="http://www.w3.org/2000/svg" viewBox="0 0 264 216">
  <path fill="rgba(255,255,255,0.8)" d="M128.8 1.2c-.9.7-9.4 15.1-18.9 32-9.5 17-18 31-18.8 31.2-.9.3-16.2 3.5-34.1 7.1-17.9 3.6-33.5 7-34.7 7.5-2.5 1-3.9 5.1-2.6 7.3.6 1.2 24.3 27.4 44.1 48.8l4.2 4.6-4.1 36.2c-4 34.7-4.1 36.3-2.4 38.1 1 1.1 2.7 2 3.7 2s16.1-6.5 33.6-14.5 32.4-14.5 33.3-14.5c.8 0 15.7 6.5 33.1 14.5 17.5 8 32.6 14.5 33.6 14.5s2.7-.9 3.7-2c1.7-1.9 1.7-3.2-2.4-38.2l-4.1-36.2 3.8-4.1c2.1-2.2 11.2-12.1 20.2-22s18.3-20.1 20.7-22.7c4.9-5.4 5.6-9 2.1-11.2-1.3-.8-17.5-4.5-36.1-8.2-18.5-3.7-34.1-7.1-34.6-7.4-.5-.3-8.7-14.2-18.1-31-9.4-16.8-17.9-31.1-18.8-31.8-.9-.6-2.3-1.2-3.2-1.2-.9 0-2.3.6-3.2 1.2z"/>
</svg>
