<svg version="1.0" xmlns="http://www.w3.org/2000/svg" viewBox="0 0 264 216">
  <path fill="rgba(255,255,255,0.8)" d="M109.6 1c-11 1.8-21 5-32.1 10.5-12.9 6.3-21.6 12.7-30.8 22.4C39.9 41.2 31 53.5 31 55.7c0 2.4 3.5 1.3 10.5-3.3C61 39.7 85 32 105.1 32c9.5 0 23.2 2.6 31.1 6 17.4 7.2 29.9 23.2 35.9 45.5 3.1 11.5 3.2 37.4.1 49-5.5 20.3-17.6 36.8-32.5 43.9-27.6 13.3-65.7 8.4-98.2-12.8-7-4.6-10.5-5.7-10.5-3.3 0 2.2 8.9 14.5 15.7 21.8 3.6 3.8 9.6 9.2 13.2 12 9.2 7 26.7 15.4 38.6 18.6 8.9 2.3 11.8 2.6 26.5 2.6s17.6-.3 26.5-2.6c11.9-3.2 29.4-11.6 38.6-18.6 18.9-14.4 33.3-36.1 39.6-59.6 2.3-8.9 2.6-11.8 2.6-26.5s-.3-17.6-2.6-26.5C223.4 58 209 36.3 190.1 21.9c-9.4-7.1-26.7-15.4-38.6-18.5C140.3.6 120-.6 109.6 1z"/>
</svg>
