<svg version="1.0" xmlns="http://www.w3.org/2000/svg" viewBox="0 0 264 216">
  <path fill="rgba(255,255,255,0.8)" d="M116.6 1c-16.5 2.6-36.9 11.2-49.7 20.9C48 36.3 33.6 58 27.3 81.5c-2.3 8.9-2.6 11.8-2.6 26.5s.3 17.6 2.6 26.5c6.3 23.5 20.7 45.2 39.6 59.6 9.2 7 26.7 15.4 38.6 18.6 8.9 2.3 11.8 2.6 26.5 2.6s17.6-.3 26.5-2.6c11.9-3.2 29.4-11.6 38.6-18.6 18.9-14.4 33.3-36.1 39.6-59.6 2.3-8.9 2.6-11.8 2.6-26.5s-.3-17.6-2.6-26.5C230.4 58 216 36.3 197.1 21.9c-9.4-7.1-26.7-15.4-38.6-18.5C147.3.6 127-.6 116.6 1zM98.8 57.3c7.3 6.8 9 20.4 3.8 31-6.7 13.9-19.6 12.6-24-2.3-2-6.7-2-11.2-.1-17.7 3.6-12.2 13.4-17.5 20.3-11zm77.1-1.8c4.3 2.2 7.9 7 9.6 12.7 1.9 6.6 1.9 11.1-.1 17.8-4.4 14.9-17.3 16.2-24 2.3-5.2-10.5-3.5-24.4 3.8-30.9 4-3.6 6.5-4.1 10.7-1.9zM79.5 132c.4.6-.1 2.2-1 3.7-1.7 2.5-1.6 2.8 2.4 10.8 9.2 18.6 28 29.5 51.1 29.5s41.9-10.9 51.1-29.5c4-8.1 4.1-8.3 2.4-10.9-1.4-2-1.5-3-.6-3.9.8-.8 1.8-.3 3.9 2.1 1.7 1.9 3.8 3.2 5.7 3.4 4.3.4 4 3.3-.3 3.4-3.2 0-3.5.4-5.2 5.1-3 8.4-7.1 15.3-13.3 21.9-11.8 12.7-23.9 17.7-43.2 17.8-18.3.1-29.9-4-41.4-14.8-6.6-6.2-12.1-14.4-15.6-23.4-2.5-6.3-2.8-6.7-5.8-6.7-4.5 0-4.4-2.9.1-3.3 2.2-.2 3.9-1.3 5.4-3.3 2.3-3.1 3.3-3.5 4.3-1.9z"/>
</svg>
