<svg xmlns="http://www.w3.org/2000/svg" version="1.0" viewBox="0 0 322 322">
  <defs/>
  <g fill="#fff">
    <path d="M270.1 45.7c-1.9 2-3.9 6.5-6.9 15.8a446.4 446.4 0 00-13.7 48.6c1.2 1.8 4.4.9 6.3-1.9A357 357 0 00266.3 90c4.7-8.5 11.9-21.3 16.1-28.5a78.2 78.2 0 007.6-15.1c0-2.8-1.7-3.4-10.2-3.4-6.3 0-7.2.3-9.7 2.7zM127.2 82.9c-8.8 3.1-19.7 9.5-34.3 20.3C78.5 113.7 71 120.7 71 123.6c0 1.4.6 2.7 1.4 3 .7.3 9.5-5.2 19.5-12.1 18.2-12.7 21.1-14 23.4-10.4.7 1.1-5.9 13.9-28 54.5L42.8 240a8190 8190 0 01-29.2 52.9A609.4 609.4 0 000 318.1c0 .4.7 1.5 1.7 2.4 3.3 3.3 19.3-.6 26.3-6.4 5-4 8.4-11.7 11-24.5 1.2-6.1 3-13.7 4.1-17 2.3-7.6 17.9-39.3 20.8-42.3 2-2.1 2.2-2.1 6.1-.6 4 1.6 4.1 1.6 10.3-1.7 17.2-8.9 30.6-19.3 69.7-53.8 11.3-10 20.7-17.7 20.8-17.2.2.6-5.7 11.9-13.1 25.3-22.4 40.4-23.4 42.9-18.1 46.4 5.4 3.5 23.4-1.9 37.2-11.1a354 354 0 0035.7-28.8c3.2-3.8 3-7.2-.5-7.6-1.8-.2-4 1.1-8 4.6a132.7 132.7 0 01-28.8 21.2c-12.8 4.8-12.3 1.9 4.8-28.8 7.8-14 16.3-28.9 19-33.2 6-9.6 24.1-41.3 28.2-49.4 3.5-6.9 3.2-9.8-1.5-12.6-3.3-2-6.3-2.5-9.2-1.4-.8.4-5.4 6.5-10 13.5a318.2 318.2 0 01-37.1 47.4 336.4 336.4 0 01-50.9 47.5c-9.3 7-18.2 13.5-19.6 14.4-6.3 4-12.9 3.7-12.9-.6 0-2.7 9.6-20.5 38.2-70.7 27.1-47.4 26.1-45.5 25.3-48.2-.8-2.5-6.1-4.9-10.7-4.9-1.8 0-7 1.3-11.6 2.9zM300.5 119.4a50 50 0 00-16.6 9.3c-18 15.1-21 29.8-10.8 52.8 4 9 5.8 17.8 4.6 22.8-1.4 5.5-10.1 11.7-16.5 11.7-5.3 0-8.5-1.6-13.7-6.9-4.4-4.6-7.2-5.1-10.2-1.9-5.6 6.2-5.8 11.4-.6 15.7 9.2 7.6 23.3 6 37.9-4.5 12.7-9 17.6-16.9 18.2-29.6.4-8.2.2-9.2-4.2-22.1-7.2-20.8-7.2-29 0-34.6 6.2-4.9 14.2-3.5 21 3.7 4.1 4.3 4.5 4.5 6.8 3.2 3.4-1.8 5.9-7.4 5.2-11.4-1.5-7.8-10.8-11.5-21.1-8.2z"/>
  </g>
</svg>
