<svg xmlns="http://www.w3.org/2000/svg" viewBox="0 0 64 64">
  <defs/>
  <defs>
    <style>
      .cls-1{fill:#fff;fill-rule:evenodd}
    </style>
  </defs>
  <path d="M16 0A16 16 0 110 16 16 16 0 0116 0zm0 2A14 14 0 112 16 14 14 0 0116 2zm32-2a16 16 0 11-16 16A16 16 0 0148 0zm0 2a14 14 0 11-14 14A14 14 0 0148 2zm0 30a16 16 0 11-16 16 16 16 0 0116-16zm0 2a14 14 0 11-14 14 14 14 0 0114-14zm-32-2A16 16 0 110 48a16 16 0 0116-16zm0 2A14 14 0 112 48a14 14 0 0114-14z" class="cls-1"/>
  <path id="Vo" d="M6.8 7.7l2 15.5h2l8-15.5h-2L10.2 21 9 7.7H6.8zm16.4 12.9a2.9 2.9 0 01-2.6 1.4 2 2 0 01-2-1.2 5.5 5.5 0 01-.2-3 8 8 0 011.4-3.2 3 3 0 012.5-1.3 2 2 0 012.1 1.5 6 6 0 010 2.6 9 9 0 01-1.2 3.2zm2.4-7.5a3.5 3.5 0 00-3-1.5 5 5 0 00-3.7 1.7 8.8 8.8 0 00-2.2 4.5 6 6 0 00.4 4.3 3.2 3.2 0 003 1.5 5 5 0 004-1.7 9.5 9.5 0 002-4.6q.6-2.8-.5-4.2z" class="cls-1"/>
  <path id="Sp" d="M37.5 18a4.7 4.7 0 00.6 4 4.5 4.5 0 003.8 1.4 7.9 7.9 0 004-1 5.1 5.1 0 002.4-3.7 3.3 3.3 0 00-.7-3.2 4.5 4.5 0 00-2-1l-1.8-.5a9.5 9.5 0 01-2.4-.8 1.5 1.5 0 01-.5-1.7 3.2 3.2 0 011-1.8 3.6 3.6 0 012.6-.8q2 0 2.7 1.2a3.8 3.8 0 01.2 2h1.8q.5-2.6-.8-3.8A5 5 0 0044.9 7 5.7 5.7 0 0041 8.4a5.8 5.8 0 00-2 3.5 2.9 2.9 0 00.9 2.9 6.5 6.5 0 002.3 1l1.8.5a5.4 5.4 0 012 .9 1.8 1.8 0 01.4 1.8 3 3 0 01-2 2.3 5.7 5.7 0 01-2 .4q-2.4 0-3-1.6a4.3 4.3 0 01-.2-2.1h-1.7zm18.8 2.6a2.9 2.9 0 01-2.2 1.1 1.9 1.9 0 01-2-1.7 6 6 0 010-2.3 10 10 0 01.9-2.6 3 3 0 012.8-2 2 2 0 012 1.9 6.6 6.6 0 010 2.3 6.9 6.9 0 01-1.5 3.3zm-7.6 6.9h1.7l1-5.8a3.4 3.4 0 00.8 1.1 2.7 2.7 0 001.8.6 4.3 4.3 0 002.8-1 8.4 8.4 0 002.7-5.3 5.9 5.9 0 00-.4-4.2 2.9 2.9 0 00-2.6-1.5 3.8 3.8 0 00-2.2.7 5.6 5.6 0 00-1.3 1.1l.3-1.5h-1.7z" class="cls-1"/>
  <path id="Sk" d="M4.7 50.7a4.7 4.7 0 00.7 4A4.5 4.5 0 009 56.2a7.9 7.9 0 004.1-1.1 5.1 5.1 0 002.4-3.7 3.3 3.3 0 00-.8-3.2 4.4 4.4 0 00-2-1l-1.8-.5a9.5 9.5 0 01-2.3-.8 1.5 1.5 0 01-.5-1.7 3.2 3.2 0 011-1.8 3.6 3.6 0 012.5-.7q2 0 2.7 1.2a3.8 3.8 0 01.3 1.9h1.7q.5-2.6-.8-3.8a5 5 0 00-3.4-1.2 5.7 5.7 0 00-4 1.4 5.8 5.8 0 00-1.9 3.4 2.9 2.9 0 00.8 2.9 6.5 6.5 0 002.4 1l1.8.5a5.4 5.4 0 012 1 1.8 1.8 0 01.4 1.7 3 3 0 01-2.1 2.4 5.7 5.7 0 01-2 .3q-2.4 0-3-1.5a4.3 4.3 0 01-.1-2.2H4.7zm12.1 5h1.7l.8-4.2L21 50l2 5.7h2.2l-2.8-7 4.7-4.3h-2.2l-5.2 4.8 1.7-9h-1.6z" class="cls-1"/>
  <path id="Gd" d="M43.3 39.3a7 7 0 00-5 2.2 11.4 11.4 0 00-3 6.2q-.8 4 .7 6.2a4.7 4.7 0 003.8 1.7 6.5 6.5 0 003.3-.7 9.8 9.8 0 002-1.7v2h1.3l1.5-8.3h-6l-.3 1.8h4.3a6.6 6.6 0 01-2 4 5 5 0 01-3.3 1.1q-2.5 0-3.2-1.7a7.7 7.7 0 01-.3-4.5 9 9 0 012.3-4.8 5 5 0 013.5-1.6 3.8 3.8 0 012.5.8 3.1 3.1 0 011 2.4h1.8q.1-3-1.7-4.2a5.6 5.6 0 00-3.2-.9zm8 13.4a5.7 5.7 0 01-.1-3 6.5 6.5 0 011.4-3.2 3 3 0 012.2-1.1 1.9 1.9 0 011.8 1 4.8 4.8 0 01.1 3.2 7 7 0 01-1.3 3.2 2.8 2.8 0 01-2.2 1.2 1.9 1.9 0 01-2-1.3zm3.5-9a4.4 4.4 0 00-3.5 1.8 9.4 9.4 0 00-2 4.3 6 6 0 00.5 4.2 2.9 2.9 0 002.6 1.6 4.1 4.1 0 002-.4 5.1 5.1 0 001.6-1.5l-.3 1.5h1.5l3-15.5h-1.7l-1 5.7a3.6 3.6 0 00-.9-1.1 2.8 2.8 0 00-1.8-.6z" class="cls-1"/>
</svg>
