<svg id="niji" xmlns="http://www.w3.org/2000/svg" viewBox="0 0 800 400">
  <defs>
    <style>
      .cls-1 {
        opacity: 0.8;
      }

      .cls-2 {
        fill: #3f9a33;
        opacity: 0.5;
      }

      .cls-3 {
        fill: #fff;
        fill-rule: evenodd;
      }
    </style>
  </defs>
  <g id="niji-2" data-name="niji" class="cls-1">
    <rect id="Rectangle_1_copy_2" data-name="Rectangle 1 copy 2" class="cls-2" width="800" height="400"/>
    <path id="face" class="cls-3" d="M706.18,97.617l28.978,7.765,0.258-.966a8.077,8.077,0,0,1-.707-1.225,9.743,9.743,0,0,1-.12-7.279L711.407,89.7a9.745,9.745,0,0,1-3.744,6.244,7.971,7.971,0,0,1-1.224.707Q706.309,97.134,706.18,97.617Zm5-9.012,24.148,6.471q0.129-.483.259-0.966a82.819,82.819,0,0,1,7.42-37.352l-19.319-5.176a82.836,82.836,0,0,1-12.249,36.058Q711.312,88.122,711.183,88.6Zm11.8-38.249,21.251,5.694,3.683-9.883-3.51-.423q-0.389,1.449-.776,2.9l-2.9-.776q0.389-1.449.776-2.9L737.164,43.8l-0.777,2.9-2.415-.647,0.777-2.9-3.864-1.035q-0.389,1.449-.776,2.9l-2.415-.647q0.389-1.449.776-2.9l-3.734-1.518Zm9.435,8.185c1.219-.336,4.2,2.946,3.408,5.9s-5.014,4.308-5.9,3.407c-0.535-.543,1.247-4.655,1.247-4.655S731.685,58.743,732.419,58.541Zm-1.86,6.361A3.594,3.594,0,0,1,729,64.483c-1.215-.621-1.822-1.881-2.015-1.787a2.5,2.5,0,0,0,.7,2.057,3.264,3.264,0,0,0,2.387,1.419C730.167,65.784,730.455,65.29,730.559,64.9Zm-0.145-.039a3.11,3.11,0,0,0,1.454.39c1.363,0.07,2.518-.718,2.639-0.54a2.5,2.5,0,0,1-1.631,1.434,3.347,3.347,0,0,1-2.813.026Zm-1.473-4.76a1.06,1.06,0,0,0-.893,1.008,1.375,1.375,0,0,0,1.163.312c0.816,0.015,1.254-.061,1.32-0.27A1.414,1.414,0,0,0,728.941,60.1Zm5.182,1.389a1.061,1.061,0,0,1,.27,1.32,1.376,1.376,0,0,1-1.163-.312c-0.715-.395-1.056-0.68-1.008-0.894A1.412,1.412,0,0,1,734.123,61.491Zm-20.6,21.344,1-.5,9.58,2.484-0.259.966Zm22.5-2.5v1l-3.96-1.112,0.259-.966Zm-14.335,3.837-0.966-.259,0.906-3.381,0.966,0.259Zm11.341-3.69L734,80.741l-0.259.966-0.965-.259Zm-0.707-1.225-0.259.966-2.9-.776,0.258-.966Zm-11.8-11.422,0.5-1,3,0.881-0.258.966Zm0.83,0.2,0.966,0.259-0.259.966L721.094,69Z"/>
  </g>
  <g id="niji_copy" data-name="niji copy" class="cls-1">
    <path id="face-2" data-name="face" class="cls-3" d="M93.914,301.727l-28.978-7.765-0.259.966a7.986,7.986,0,0,1,.707,1.225,9.743,9.743,0,0,1,.12,7.279l23.182,6.212a9.74,9.74,0,0,1,3.744-6.244,7.967,7.967,0,0,1,1.225-.707Zm-5,9.012-24.148-6.471-0.259.966a82.727,82.727,0,0,1-.726,14.3,83.225,83.225,0,0,1-6.695,23.053L76.4,347.763a82.835,82.835,0,0,1,12.25-36.058Zm-11.8,38.249-21.25-5.694-3.684,9.883,3.51,0.423,0.776-2.9,2.9,0.777-0.777,2.9,4.347,1.165,0.776-2.9,2.415,0.647-0.776,2.9,3.864,1.035,0.776-2.9,2.415,0.647-0.776,2.9,3.734,1.518ZM67.674,340.8c-1.219.336-4.2-2.946-3.407-5.9s5.014-4.307,5.9-3.407c0.535,0.542-1.247,4.655-1.247,4.655S68.409,340.6,67.674,340.8Zm1.86-6.361a3.6,3.6,0,0,1,1.564.419c1.215,0.621,1.822,1.881,2.016,1.787a2.5,2.5,0,0,0-.7-2.057,3.266,3.266,0,0,0-2.387-1.419C69.927,333.56,69.639,334.054,69.535,334.442Zm0.145,0.039a3.121,3.121,0,0,0-1.455-.39c-1.363-.07-2.518.718-2.639,0.54a2.5,2.5,0,0,1,1.631-1.433,3.344,3.344,0,0,1,2.813-.026Zm1.472,4.76a1.062,1.062,0,0,0,.894-1.008,1.38,1.38,0,0,0-1.164-.312c-0.816-.015-1.254.061-1.32,0.27A1.413,1.413,0,0,0,71.153,339.241Zm-5.182-1.389a1.061,1.061,0,0,1-.27-1.319,1.377,1.377,0,0,1,1.164.312c0.715,0.394,1.055.679,1.008,0.893A1.413,1.413,0,0,1,65.971,337.852Zm20.6-21.344-1,.5-9.579-2.484,0.259-.966Zm-22.5,2.5v-1l3.96,1.112-0.259.966Zm14.336-3.837,0.966,0.259-0.906,3.381-0.966-.259Zm-11.342,3.69L66.1,318.6l0.259-.966,0.966,0.258Zm0.707,1.225,0.259-.966,2.9,0.777-0.259.966Zm11.8,11.422-0.5,1-3-.882,0.259-.965Zm-0.829-.2-0.966-.259,0.259-.966L79,330.342Z"/>
  </g>
</svg>
