<svg id="aq" xmlns="http://www.w3.org/2000/svg" viewBox="0 0 800 400">
  <defs>
    <style>
      .cls-1 {
        fill: #3a94cd;
        opacity: 0.5;
      }

      .cls-2 {
        opacity: 0.8;
      }

      .cls-3 {
        fill: #fff;
        fill-rule: evenodd;
      }
    </style>
  </defs>
  <rect class="cls-1" width="800" height="400"/>
  <g id="aq-2" data-name="aq" class="cls-2">
    <path id="outer_ring" data-name="outer ring" class="cls-3" d="M734.957,48.834C747.76,52.265,754.651,64.2,751.22,77S735.854,96.7,723.051,93.267,703.357,77.9,706.788,65.1,722.154,45.4,734.957,48.834ZM733.922,52.7c11.2,3,16.436,12.067,13.435,23.27S735.289,92.4,724.086,89.4s-16.436-12.067-13.435-23.27S722.719,49.7,733.922,52.7Z"/>
    <path id="face" class="cls-3" d="M731.8,60.622a10.8,10.8,0,1,1-13.223,7.635A10.8,10.8,0,0,1,731.8,60.622Zm-0.558,2.085c2.185-.6,7.528,5.282,6.108,10.58s-8.989,7.722-10.58,6.108c-0.959-.972,2.236-8.344,2.236-8.344S729.923,63.069,731.24,62.706Zm-3.335,11.4a6.435,6.435,0,0,1-2.8-.751c-2.179-1.113-3.267-3.371-3.614-3.2-0.319.154-.007,2.14,1.248,3.688a5.854,5.854,0,0,0,4.279,2.544C727.2,75.691,727.719,74.805,727.905,74.11Zm-0.261-.07a5.582,5.582,0,0,0,2.608.7c2.443,0.126,4.514-1.287,4.731-.968,0.2,0.293-1.063,1.857-2.925,2.57a6,6,0,0,1-5.043.046C727.2,75.691,727.458,74.735,727.644,74.04Zm-2.639-8.533c-0.965.211-1.823,1.235-1.6,1.807,0.124,0.323.823,0.535,2.086,0.559,1.463,0.028,2.247-.109,2.365-0.484C728.055,66.749,726.459,65.19,725.005,65.507ZM734.294,68c0.73,0.664.961,1.98,0.484,2.365-0.269.217-.981,0.052-2.086-0.559-1.281-.708-1.892-1.218-1.806-1.6C731.031,67.546,733.194,66.994,734.294,68Z"/>
    <g id="spokes">
      <path id="spk_n" class="cls-3" d="M734.837,41.555A2,2,0,1,1,738.7,42.59a3.563,3.563,0,0,0-1.483,1.673,3.657,3.657,0,0,0,.189,3.157q-0.775,2.9-1.553,5.8-1.647,4.217-3.295,8.435l-1.932-.518q0.683-4.476,1.364-8.952,0.775-2.9,1.553-5.8a3.654,3.654,0,0,0,1.742-2.639A3.559,3.559,0,0,0,734.837,41.555Z"/>
      <path id="spk_ne" class="cls-3" d="M753.911,55.178a2,2,0,0,1,2,3.464,3.559,3.559,0,0,0-2.232.134,3.652,3.652,0,0,0-2.1,2.366l-5.2,3-8.294,3.634-1-1.732,7.294-5.366,5.2-3a3.656,3.656,0,0,0,3.1-.634A3.566,3.566,0,0,0,753.911,55.178Z"/>
      <path id="spk_e" class="cls-3" d="M758.518,76.958a2,2,0,0,1-1.035,3.864,3.564,3.564,0,0,0-1.674-1.484,3.654,3.654,0,0,0-3.156.189l-5.8-1.553-8.434-3.3q0.258-.966.517-1.932l8.953,1.364,5.795,1.553a3.656,3.656,0,0,0,2.639,1.742A3.56,3.56,0,0,0,758.518,76.958Z"/>
      <path id="spk_se" class="cls-3" d="M746.373,94.36a2,2,0,1,1-3.464,2,3.56,3.56,0,0,0-.134-2.232,3.656,3.656,0,0,0-2.366-2.1l-3-5.2-3.634-8.294,1.732-1,5.366,7.294,3,5.2a3.656,3.656,0,0,0,.634,3.1A3.56,3.56,0,0,0,746.373,94.36Z"/>
      <path id="spk_s" class="cls-3" d="M723.122,100.635a2,2,0,0,1-3.864-1.035,3.56,3.56,0,0,0,1.484-1.673,3.654,3.654,0,0,0-.19-3.157q0.777-2.9,1.553-5.8,1.648-4.217,3.295-8.434l1.932,0.518q-0.681,4.476-1.363,8.952-0.777,2.9-1.553,5.8a3.654,3.654,0,0,0-1.742,2.639A3.553,3.553,0,0,0,723.122,100.635Z"/>
      <path id="spk_sw" class="cls-3" d="M703.335,85.789a2,2,0,0,1-2-3.464,3.559,3.559,0,0,0,2.232-.134,3.657,3.657,0,0,0,2.1-2.366l5.2-3,8.294-3.634q0.5,0.866,1,1.732l-7.294,5.366-5.2,3a3.655,3.655,0,0,0-3.1.634A3.56,3.56,0,0,0,703.335,85.789Z"/>
      <path id="spk_w" class="cls-3" d="M699.456,65.236a2,2,0,1,1,1.035-3.864,3.557,3.557,0,0,0,1.673,1.484,3.656,3.656,0,0,0,3.157-.19l5.795,1.553,8.435,3.3q-0.26.966-.518,1.932l-8.952-1.363-5.8-1.553a3.654,3.654,0,0,0-2.639-1.742A3.558,3.558,0,0,0,699.456,65.236Z"/>
      <path id="spk_nw" class="cls-3" d="M710.9,46.6a2,2,0,1,1,3.464-2,3.56,3.56,0,0,0,.134,2.232,3.656,3.656,0,0,0,2.366,2.1l3,5.2,3.634,8.294-1.732,1L716.4,56.127l-3-5.2a3.656,3.656,0,0,0-.634-3.1A3.56,3.56,0,0,0,710.9,46.6Z"/>
    </g>
  </g>
  <g id="aq_copy" data-name="aq copy" class="cls-2">
    <path id="outer_ring-2" data-name="outer ring" class="cls-3" d="M65.024,351.187c-12.8-3.43-19.694-15.366-16.263-28.169s15.366-19.694,28.169-16.263,19.694,15.366,16.264,28.169S77.827,354.618,65.024,351.187Zm1.035-3.863c-11.2-3-16.437-12.068-13.435-23.271s12.067-16.436,23.27-13.435,16.437,12.068,13.435,23.271S77.262,350.325,66.059,347.324Z"/>
    <path id="face-2" data-name="face" class="cls-3" d="M68.182,339.4a10.8,10.8,0,1,1,13.223-7.635A10.8,10.8,0,0,1,68.182,339.4Zm0.559-2.085c-2.185.6-7.528-5.281-6.108-10.58s8.989-7.722,10.58-6.108c0.959,0.972-2.236,8.344-2.236,8.344S70.057,336.953,68.741,337.315Zm3.335-11.4a6.428,6.428,0,0,1,2.8.751c2.179,1.112,3.266,3.371,3.613,3.2,0.319-.154.008-2.14-1.248-3.688a5.853,5.853,0,0,0-4.279-2.544C72.779,324.33,72.262,325.216,72.076,325.912Zm0.261,0.07a5.571,5.571,0,0,0-2.608-.7c-2.443-.126-4.515,1.286-4.731.968-0.2-.293,1.063-1.857,2.925-2.57a6,6,0,0,1,5.043-.046Zm2.639,8.532c0.964-.21,1.822-1.234,1.6-1.806-0.124-.323-0.824-0.535-2.086-0.559-1.463-.028-2.248.109-2.365,0.484C71.925,333.273,73.522,334.832,74.976,334.514Zm-9.29-2.489c-0.73-.664-0.961-1.98-0.484-2.365,0.269-.218.981-0.052,2.086,0.559,1.281,0.707,1.892,1.218,1.807,1.6C68.949,332.475,66.787,333.027,65.686,332.025Z"/>
    <g id="spokes-2" data-name="spokes">
      <path id="spk_n-2" data-name="spk_n" class="cls-3" d="M65.144,358.466a2,2,0,1,1-3.864-1.035,3.558,3.558,0,0,0,1.484-1.673,3.657,3.657,0,0,0-.189-3.157l1.553-5.8,3.3-8.435,1.932,0.518-1.364,8.952-1.553,5.8a3.654,3.654,0,0,0-1.742,2.639A3.557,3.557,0,0,0,65.144,358.466Z"/>
      <path id="spk_ne-2" data-name="spk_ne" class="cls-3" d="M46.07,344.844a2,2,0,0,1-2-3.464,3.56,3.56,0,0,0,2.232-.134,3.656,3.656,0,0,0,2.1-2.366l5.2-3,8.294-3.634,1,1.732L55.6,339.344l-5.2,3a3.652,3.652,0,0,0-3.1.634A3.557,3.557,0,0,0,46.07,344.844Z"/>
      <path id="spk_e-2" data-name="spk_e" class="cls-3" d="M41.463,323.064A2,2,0,0,1,42.5,319.2a3.56,3.56,0,0,0,1.673,1.484,3.654,3.654,0,0,0,3.157-.19l5.8,1.553,8.435,3.3-0.518,1.931-8.952-1.363-5.8-1.553a3.654,3.654,0,0,0-2.639-1.742A3.559,3.559,0,0,0,41.463,323.064Z"/>
      <path id="spk_se-2" data-name="spk_se" class="cls-3" d="M53.607,305.662a2,2,0,0,1,3.464-2,3.559,3.559,0,0,0,.134,2.232,3.657,3.657,0,0,0,2.366,2.1l3,5.2,3.634,8.294-1.732,1-5.366-7.294-3-5.2a3.655,3.655,0,0,0-.634-3.1A3.554,3.554,0,0,0,53.607,305.662Z"/>
      <path id="spk_s-2" data-name="spk_s" class="cls-3" d="M76.859,299.387a2,2,0,1,1,3.864,1.035,3.558,3.558,0,0,0-1.484,1.673,3.656,3.656,0,0,0,.19,3.157l-1.553,5.8-3.3,8.435-1.932-.518,1.363-8.952,1.553-5.8a3.654,3.654,0,0,0,1.742-2.639A3.558,3.558,0,0,0,76.859,299.387Z"/>
      <path id="spk_sw-2" data-name="spk_sw" class="cls-3" d="M96.646,314.232a2,2,0,0,1,2,3.465,3.553,3.553,0,0,0-2.232.134,3.654,3.654,0,0,0-2.1,2.366l-5.2,3-8.294,3.634-1-1.732,7.294-5.367,5.2-3a3.655,3.655,0,0,0,3.1-.633A3.559,3.559,0,0,0,96.646,314.232Z"/>
      <path id="spk_w-2" data-name="spk_w" class="cls-3" d="M100.525,334.786a2,2,0,1,1-1.035,3.863,3.558,3.558,0,0,0-1.673-1.483,3.657,3.657,0,0,0-3.157.189l-5.8-1.553-8.434-3.3,0.518-1.932,8.952,1.364,5.8,1.552a3.656,3.656,0,0,0,2.639,1.743A3.567,3.567,0,0,0,100.525,334.786Z"/>
      <path id="spk_nw-2" data-name="spk_nw" class="cls-3" d="M89.086,353.42a2,2,0,0,1-3.464,2,3.56,3.56,0,0,0-.134-2.232,3.657,3.657,0,0,0-2.366-2.1l-3-5.2L76.488,337.6l1.732-1,5.366,7.294,3,5.2a3.655,3.655,0,0,0,.634,3.1A3.554,3.554,0,0,0,89.086,353.42Z"/>
    </g>
  </g>
</svg>
