<svg id="mu" xmlns="http://www.w3.org/2000/svg" viewBox="0 0 800 400">
  <defs>
    <style>
      .cls-1 {
        fill: #ff3678;
        opacity: 0.5;
      }

      .cls-2 {
        opacity: 0.8;
      }

      .cls-3 {
        fill: #fff;
        fill-rule: evenodd;
      }
    </style>
  </defs>
  <rect id="Rectangle_1_copy" data-name="Rectangle 1 copy" class="cls-1" width="800" height="400"/>
  <g id="mu-2" data-name="mu" class="cls-2">
    <path id="face" class="cls-3" d="M73.8,357.988a30.472,30.472,0,0,1-9.564-1.01,30.048,30.048,0,0,1-13.454-7.746,30.513,30.513,0,0,1-7.76-29,30.013,30.013,0,0,1,14.87-18.791,29.23,29.23,0,0,1,33.17,3.711A27.792,27.792,0,0,0,73.8,357.988Zm14.223-26.4-0.415-.929-0.9-.191,0.784-.573-0.408-1.081,1.041,0.5,1.232-.4-0.5,1.04,0.731,0.639-1.067.106Zm-16.894-2.269,0.672,3.286,2.768,1.26-2.932,1.285,0.543,3.769-2.992-2.355-4.252.414,2.355-2.993-1.9-2.579,3.51,0.423Zm-2.245,15.66-0.23-1.594-1.291-.681,1.441-.533-0.154-1.821,1.368,1.212,2.049-.079-1.212,1.368,0.837,1.289-1.67-.3Zm11.146-18.34,0.4-1.7-1.03-1.2,1.664,0.036,0.57-1.9,0.9,1.766,2.1,0.737-1.766.895,0.33,1.632-1.563-.969Zm3.426,6.2-0.732-1.124-1.215-.063,0.9-.908-0.755-1.323,1.459,0.437,1.521-.778L84.2,330.541l1.084,0.682-1.368.357Zm-9.369,8.253,0.4-1.7-1.03-1.2,1.664,0.037,0.57-1.9,0.9,1.766,2.1,0.737-1.766.895,0.33,1.632-1.563-.968Zm-6.544-27.949-0.162-1.278-1.023-.563,1.16-.406-0.1-1.459,1.077,0.989,1.64-.034-0.989,1.077,0.651,1.042-1.331-.264Zm-4.088,3.877,0.4-1.7-1.03-1.2,1.664,0.037,0.57-1.9,0.9,1.766,2.1,0.737-1.766.895,0.33,1.632-1.563-.968Zm-1.743-4.217-1.231-1.236-1.563.244,0.907-1.4-1.313-1.482,1.973,0.168,1.729-1.395-0.168,1.973,1.561,0.578-1.646.819ZM48.09,326.6c-1.222.337-4.212-2.955-3.418-5.919s5.029-4.321,5.92-3.418c0.537,0.544-1.251,4.669-1.251,4.669S48.827,326.4,48.09,326.6Zm1.866-6.38a3.6,3.6,0,0,1,1.568.42c1.219,0.623,1.828,1.886,2.022,1.793a2.511,2.511,0,0,0-.7-2.064,3.275,3.275,0,0,0-2.394-1.423C50.35,319.334,50.061,319.83,49.956,320.219Zm0.146,0.039a3.115,3.115,0,0,0-1.459-.391c-1.367-.07-2.526.72-2.647,0.542a2.51,2.51,0,0,1,1.636-1.438,3.356,3.356,0,0,1,2.822-.026Zm1.477,4.774a1.065,1.065,0,0,0,.9-1.011,1.383,1.383,0,0,0-1.167-.312c-0.819-.016-1.258.061-1.324,0.27A1.417,1.417,0,0,0,51.579,325.032Zm-5.2-1.393a1.064,1.064,0,0,1-.271-1.323,1.379,1.379,0,0,1,1.167.313c0.717,0.395,1.059.681,1.011,0.9A1.417,1.417,0,0,1,46.381,323.639Z"/>
    <path class="cls-3" d="M63.718,358.91a32,32,0,1,1,39.192-22.628A32.154,32.154,0,0,1,63.718,358.91Zm0.259-.966a31,31,0,1,1,37.967-21.921A31.149,31.149,0,0,1,63.977,357.944Z"/>
  </g>
  <g id="mu_copy" data-name="mu copy" class="cls-2">
    <path id="face-2" data-name="face" class="cls-3" d="M726.2,42.012a30.474,30.474,0,0,1,9.565,1.01,30.041,30.041,0,0,1,13.453,7.746,30.512,30.512,0,0,1,7.76,29,30.013,30.013,0,0,1-14.871,18.792,29.229,29.229,0,0,1-33.169-3.711A27.792,27.792,0,0,0,726.2,42.012Zm-14.223,26.4,0.415,0.929,0.9,0.191-0.784.573,0.408,1.08-1.04-.5-1.232.4,0.5-1.041-0.731-.639,1.067-.105Zm16.894,2.268L728.2,67.395l-2.769-1.259,2.933-1.285-0.543-3.769,2.992,2.355,4.252-.414-2.354,2.992,1.9,2.579-3.51-.423Zm2.246-15.659q0.114,0.8.23,1.593l1.291,0.681-1.441.533q0.077,0.91.154,1.821l-1.368-1.212-2.049.079,1.213-1.368L728.31,55.86l1.67,0.3ZM719.971,73.361q-0.2.849-.4,1.7l1.03,1.2-1.665-.037q-0.285.948-.569,1.9l-0.9-1.766-2.1-.736,1.767-.9-0.33-1.632,1.563,0.968Zm-3.426-6.2,0.733,1.124,1.215,0.062-0.9.909,0.755,1.323-1.459-.437-1.521.778q0.217-.73.437-1.459l-1.085-.681,1.368-.358Q716.316,67.789,716.545,67.159Zm9.369-8.253-0.4,1.7,1.029,1.2-1.664-.037-0.57,1.9L723.412,61.9l-2.1-.736,1.766-.9-0.33-1.632,1.563,0.969Zm6.544,27.949,0.162,1.278,1.023,0.563-1.16.406q0.05,0.729.1,1.459l-1.077-.989-1.64.034,0.989-1.077L730.2,87.487l1.331,0.264Zm4.088-3.877-0.4,1.7,1.029,1.2-1.664-.037-0.57,1.9-0.895-1.766-2.1-.737,1.766-.9-0.33-1.632,1.563,0.969Zm1.743,4.217,1.232,1.235,1.562-.244-0.906,1.4,1.313,1.482-1.973-.168-1.729,1.395q0.084-.987.167-1.973l-1.561-.578,1.646-.819ZM751.91,73.4c1.222-.337,4.212,2.955,3.417,5.92s-5.029,4.321-5.919,3.418c-0.537-.544,1.251-4.669,1.251-4.669S751.173,73.6,751.91,73.4Zm-1.866,6.38a3.6,3.6,0,0,1-1.569-.42c-1.219-.623-1.827-1.886-2.021-1.793a2.506,2.506,0,0,0,.7,2.063,3.274,3.274,0,0,0,2.394,1.423C749.65,80.666,749.939,80.17,750.044,79.781Zm-0.146-.039a3.121,3.121,0,0,0,1.459.391c1.367,0.07,2.526-.72,2.647-0.542a2.509,2.509,0,0,1-1.636,1.438,3.358,3.358,0,0,1-2.822.026C749.65,80.666,749.794,80.131,749.9,79.742Zm-1.477-4.774a1.064,1.064,0,0,0-.9,1.011,1.381,1.381,0,0,0,1.167.313c0.818,0.015,1.257-.061,1.323-0.271A1.416,1.416,0,0,0,748.421,74.968Zm5.2,1.393a1.064,1.064,0,0,1,.27,1.323,1.382,1.382,0,0,1-1.167-.313c-0.716-.4-1.058-0.682-1.011-0.9A1.419,1.419,0,0,1,753.619,76.361Z"/>
    <path class="cls-3" d="M736.282,41.09A32,32,0,1,1,697.09,63.718,32.153,32.153,0,0,1,736.282,41.09Zm-0.259.966a31,31,0,1,1-37.967,21.92A31.149,31.149,0,0,1,736.023,42.056Z"/>
  </g>
</svg>
