<svg xmlns="http://www.w3.org/2000/svg" width="800" height="400" viewBox="0 0 800 400">
  <defs>
    <style>
      .cls-1 {
        opacity: 0.2;
      }

      .cls-2 {
        fill: #ffea00;
      }

      .cls-3, .cls-4 {
        fill-rule: evenodd;
      }

      .cls-4 {
        fill: red;
      }
    </style>
    <rect id="bg1" class="cls-2" width="900" height="40"/>
    <rect id="bg2" class="cls-1" y="5" width="900" height="40"/>
    <path id="t1" class="cls-3" d="M3,11.252A12.717,12.717,0,0,0,.488,19.44,13.838,13.838,0,0,0,3.025,27.58a7.149,7.149,0,0,0,5.887,3.313A7.127,7.127,0,0,0,14.8,27.58a13.011,13.011,0,0,0,2.425-8.047,12.878,12.878,0,0,0-2.738-8.187Q11.775,7.893,8.675,7.877,5.6,7.862,3,11.252H3ZM8.05,11.6a28.76,28.76,0,0,0-5.513.953Q4.512,9.705,6,9.752,7.175,9.8,8.05,11.6h0Zm4.825,1.969a8.049,8.049,0,0,1,1.475,5.109,7.939,7.939,0,0,1-1.75,4.969q-0.075.078-.2,0.234A15.339,15.339,0,0,0,10.388,18.6a2.149,2.149,0,0,0-.55-0.875A2.065,2.065,0,0,0,8.3,17.111a1.753,1.753,0,0,0-1.438.609,2.284,2.284,0,0,0-.55,1.469,1.87,1.87,0,0,0,.612,1.531,2.087,2.087,0,0,0,1.513.641,2.822,2.822,0,0,0,.713-0.156q1.463,0.156,1.987,3.734a4.848,4.848,0,0,1-2.6.734,5.148,5.148,0,0,1-4.05-1.984,7.171,7.171,0,0,1-1.775-4.656,6.885,6.885,0,0,1,1.7-4.766A6.716,6.716,0,0,1,8.75,11.8a4.766,4.766,0,0,1,.625-0.047,4,4,0,0,1,3.5,1.813h0ZM19.988,8.8q5.137,0.172,4.75,1.047a21.1,21.1,0,0,0-1.6,8.063,6.207,6.207,0,0,0-1.25-2.531q-1-1.187-2.062,1.328-1.85,4.391-1.337,11.766,0.113,1.844.6,2.125a2.011,2.011,0,0,0,1.238.266q0.887-.2.762-1.547a30.14,30.14,0,0,1,.35-8.2Q22,17.94,23.063,19.143q-0.05,5.828,1.313,8.578a4.725,4.725,0,0,0,4.675,2.8q3.175-.031,3.75-3.594a13.64,13.64,0,0,0,.163-1.5,8.108,8.108,0,0,0-.762-4.5q-1.025-1.687-2.563-1.047a3.1,3.1,0,0,0-1.812,2.359q-0.375,1.953.525,2.625,1.3,0.953,1.675-.641a2.058,2.058,0,0,0-.6-2.031,2.117,2.117,0,0,0-.838-0.562,1.1,1.1,0,0,1,1.4-.687,2.817,2.817,0,0,1,1.425,1.391,4.6,4.6,0,0,1,.262,4.594q-1.513,2.781-4.663,1.156-2.338-1.234-1.775-7.641a25.407,25.407,0,0,1,2.787-9.7q0.8-1.468,1.55-1.344,1.812,0.328,1.6-.187-0.2-.484-2.413-0.875a23.6,23.6,0,0,0-6.425-.219,20.5,20.5,0,0,0-2.15.328q-1.488.313-.2,0.359h0Zm15.7,3.219a1.839,1.839,0,0,1,.712-1.125,0.426,0.426,0,0,1,.712.078,126.409,126.409,0,0,1,.125,17.406q-0.063,1.188-.487,1.094a0.864,0.864,0,0,1-.638-0.516,0.05,0.05,0,0,0,.013-0.031,2.345,2.345,0,0,0,.337-0.984,1.323,1.323,0,0,0-.381-1.156,1.376,1.376,0,0,0-.988-0.43,1.04,1.04,0,0,0-.869.492,1.945,1.945,0,0,0-.337,1.141,1.889,1.889,0,0,0,.087.594L33.988,28.6q0.075,0.234.175,0.516a2.792,2.792,0,0,0,2.387,1.656,4.935,4.935,0,0,0,2.888-.344q0.875-.406.987-3.2a8.682,8.682,0,0,0,2.263,2.531,6.057,6.057,0,0,0,3.2.953q1.825-.234,1.938-2.859V9.689A2.015,2.015,0,0,0,46.9,8.236q-2.413-1.391-3.85,2.687a1.329,1.329,0,0,1,.988,1.125,81.816,81.816,0,0,1,.087,13.766,4.83,4.83,0,0,1-.763,2.5,0.527,0.527,0,0,1-.9.094,17.632,17.632,0,0,1-2-2.594,155.347,155.347,0,0,0-.425-15.75A1.7,1.7,0,0,0,38.25,8.252,2.232,2.232,0,0,0,36.4,9.424a4.21,4.21,0,0,0-.712,2.594h0Zm5.538,3.773a1.383,1.383,0,0,0,1.131.555,1.418,1.418,0,0,0,1.112-.594,2.2,2.2,0,0,0,.456-1.406,2.232,2.232,0,0,0-.456-1.414,1.362,1.362,0,0,0-1.106-.586,1.378,1.378,0,0,0-1.112.586,2.335,2.335,0,0,0-.481,1.438A2.071,2.071,0,0,0,41.225,15.791ZM41.038,23.8a2.1,2.1,0,0,0,.462,1.367,1.44,1.44,0,0,0,1.144.578,1.187,1.187,0,0,0,1.063-.57,2.44,2.44,0,0,0,.381-1.375,2.6,2.6,0,0,0-.381-1.406,1.124,1.124,0,0,0-1.062-.578,1.507,1.507,0,0,0-1.144.609A2.134,2.134,0,0,0,41.038,23.8Zm0.194-5.969a2.424,2.424,0,0,0-.431,1.438,2.2,2.2,0,0,0,.475,1.422,1.383,1.383,0,0,0,1.125.594,1.351,1.351,0,0,0,1.113-.594,2.206,2.206,0,0,0,.475-1.422,2.278,2.278,0,0,0-.462-1.43,1.434,1.434,0,0,0-1.163-.609A1.307,1.307,0,0,0,41.231,17.83ZM53.175,8.08a4.551,4.551,0,0,0-3.512,2.734,7.992,7.992,0,0,0-.144,4.508Q50.087,17.815,51.8,17.8a2.422,2.422,0,0,0,2.325-2.281,1.515,1.515,0,0,0,.263-0.266,1.783,1.783,0,0,0,0-2.281,1.2,1.2,0,0,0-1.925,0,1.826,1.826,0,0,0,0,2.281,1.21,1.21,0,0,0,.962.484,0.83,0.83,0,0,0,.188-0.016,1.7,1.7,0,0,1-1.9,1.063q-1.325-.219-1.312-2.594a3.567,3.567,0,0,1,1.525-3.3,2.216,2.216,0,0,1,2.925.383,6.559,6.559,0,0,1,1.8,4.133,7.824,7.824,0,0,1-.637,4.438,12.7,12.7,0,0,1-.725,1.2,9.047,9.047,0,0,1-1.638,1.906,2.743,2.743,0,0,0-.6,1.094,4.034,4.034,0,0,0-.162,1.125,1.446,1.446,0,0,0,.362,1,1.06,1.06,0,0,0,.856.438,1.094,1.094,0,0,0,.869-0.437,1.479,1.479,0,0,0,.35-1,1.5,1.5,0,0,0-.35-1.016,0.907,0.907,0,0,0-.225-0.2,14.921,14.921,0,0,0,1.763-1.469,2.916,2.916,0,0,1,1.362,2.578A3.538,3.538,0,0,1,56.4,28.127a3.129,3.129,0,0,1-3.225.031A3.3,3.3,0,0,1,51.25,25.33,4.709,4.709,0,0,1,52.175,22a2.4,2.4,0,0,1,3.113-.953,2.157,2.157,0,0,0-2.475-1.25,3.346,3.346,0,0,0-2.825,2.234,7.9,7.9,0,0,0-.525,4.578,4.621,4.621,0,0,0,1.988,3.359,6.21,6.21,0,0,0,4.087.891,3.522,3.522,0,0,0,3.25-2.062,8.417,8.417,0,0,0,.512-4.375A6.882,6.882,0,0,0,57.513,20.8,15.283,15.283,0,0,0,59.3,15.1a8.326,8.326,0,0,0-1.587-5.141A3.871,3.871,0,0,0,54.2,7.924a4.646,4.646,0,0,0-1.025.156h0ZM62.3,12.018a1.839,1.839,0,0,1,.713-1.125,0.426,0.426,0,0,1,.712.078,126.409,126.409,0,0,1,.125,17.406q-0.063,1.188-.488,1.094a0.864,0.864,0,0,1-.637-0.516,0.05,0.05,0,0,0,.012-0.031,2.345,2.345,0,0,0,.338-0.984,1.323,1.323,0,0,0-.381-1.156,1.376,1.376,0,0,0-.987-0.43,1.04,1.04,0,0,0-.869.492,1.945,1.945,0,0,0-.337,1.141,1.889,1.889,0,0,0,.087.594L60.6,28.6q0.075,0.234.175,0.516a2.792,2.792,0,0,0,2.388,1.656,4.935,4.935,0,0,0,2.887-.344q0.875-.406.987-3.2A8.682,8.682,0,0,0,69.3,29.752a6.057,6.057,0,0,0,3.2.953q1.825-.234,1.938-2.859V9.689a2.015,2.015,0,0,0-.925-1.453q-2.413-1.391-3.85,2.687a1.329,1.329,0,0,1,.988,1.125,81.816,81.816,0,0,1,.087,13.766,4.83,4.83,0,0,1-.763,2.5,0.527,0.527,0,0,1-.9.094,17.632,17.632,0,0,1-2-2.594,155.347,155.347,0,0,0-.425-15.75,1.7,1.7,0,0,0-1.788-1.813,2.232,2.232,0,0,0-1.85,1.172,4.21,4.21,0,0,0-.713,2.594h0Zm5.538,3.773a1.383,1.383,0,0,0,1.131.555,1.419,1.419,0,0,0,1.112-.594,2.2,2.2,0,0,0,.456-1.406,2.233,2.233,0,0,0-.456-1.414,1.362,1.362,0,0,0-1.106-.586,1.378,1.378,0,0,0-1.112.586,2.335,2.335,0,0,0-.481,1.438A2.071,2.071,0,0,0,67.838,15.791ZM67.65,23.8a2.1,2.1,0,0,0,.462,1.367,1.44,1.44,0,0,0,1.144.578,1.187,1.187,0,0,0,1.063-.57A2.44,2.44,0,0,0,70.7,23.8a2.6,2.6,0,0,0-.381-1.406,1.124,1.124,0,0,0-1.062-.578,1.507,1.507,0,0,0-1.144.609A2.134,2.134,0,0,0,67.65,23.8Zm0.194-5.969a2.424,2.424,0,0,0-.431,1.438,2.2,2.2,0,0,0,.475,1.422,1.383,1.383,0,0,0,1.125.594,1.351,1.351,0,0,0,1.112-.594,2.206,2.206,0,0,0,.475-1.422,2.278,2.278,0,0,0-.462-1.43,1.434,1.434,0,0,0-1.163-.609A1.307,1.307,0,0,0,67.844,17.83Zm7.544-6.781q2.525-3.953,4.063-.781a4.327,4.327,0,0,1,.388,2.578,2.96,2.96,0,0,1-.85,1.656A15.04,15.04,0,0,0,77.1,17.033q2.175-1.906,2.813-.172a6.837,6.837,0,0,1,.388,2.906,32.619,32.619,0,0,0,.25,6.734,11.542,11.542,0,0,1,1.3-5.062q1.35-2.406,3.513-1.062a4.917,4.917,0,0,1,2.425,4.875,3.456,3.456,0,0,1-2.5,3.25,5.728,5.728,0,0,1-4.137.047,5.513,5.513,0,0,1-1.788-1.109,3.063,3.063,0,0,1-.875-1.859,1.613,1.613,0,0,0,.4-0.547,4.563,4.563,0,0,0,.438-1.672,2.314,2.314,0,0,0-.338-1.594A0.931,0.931,0,0,0,77.2,21.8a3.207,3.207,0,0,0-.475,1.766,5.465,5.465,0,0,0,.163,1.75,8.62,8.62,0,0,0,2.563,4.391A6.825,6.825,0,0,0,83.9,30.83,6.722,6.722,0,0,0,89.075,28a15.072,15.072,0,0,0,2.7-8.594,13.606,13.606,0,0,0-2.113-8.031q-2.725-4.3-7.875-2.5A1.52,1.52,0,0,1,80.3,8.518q-2.975-2.328-4.912,2.531h0ZM94.625,8.8q5.137,0.172,4.75,1.047a21.1,21.1,0,0,0-1.6,8.063,6.207,6.207,0,0,0-1.25-2.531q-1-1.187-2.062,1.328-1.85,4.391-1.338,11.766,0.113,1.844.6,2.125a2.011,2.011,0,0,0,1.238.266q0.887-.2.762-1.547a30.14,30.14,0,0,1,.35-8.2q0.563-3.172,1.625-1.969-0.05,5.828,1.313,8.578a4.725,4.725,0,0,0,4.674,2.8q3.176-.031,3.75-3.594a13.451,13.451,0,0,0,.163-1.5,8.1,8.1,0,0,0-.763-4.5q-1.025-1.687-2.562-1.047a3.1,3.1,0,0,0-1.813,2.359q-0.375,1.953.525,2.625,1.3,0.953,1.675-.641a2.054,2.054,0,0,0-.6-2.031,2.107,2.107,0,0,0-.837-0.562,1.1,1.1,0,0,1,1.4-.687,2.814,2.814,0,0,1,1.425,1.391,4.6,4.6,0,0,1,.262,4.594q-1.512,2.781-4.662,1.156-2.337-1.234-1.775-7.641a25.4,25.4,0,0,1,2.787-9.7q0.8-1.468,1.55-1.344,1.814,0.328,1.6-.187-0.2-.484-2.412-0.875a23.6,23.6,0,0,0-6.425-.219,20.5,20.5,0,0,0-2.15.328q-1.488.313-.2,0.359h0Zm24.225,3.219a1.838,1.838,0,0,1,.712-1.125,0.426,0.426,0,0,1,.713.078,126.378,126.378,0,0,1,.125,17.406q-0.063,1.188-.488,1.094a0.865,0.865,0,0,1-.637-0.516,0.051,0.051,0,0,0,.012-0.031,2.345,2.345,0,0,0,.338-0.984,1.323,1.323,0,0,0-.381-1.156,1.379,1.379,0,0,0-.988-0.43,1.041,1.041,0,0,0-.869.492,1.945,1.945,0,0,0-.337,1.141,1.9,1.9,0,0,0,.087.594L117.15,28.6q0.075,0.234.175,0.516a2.791,2.791,0,0,0,2.387,1.656,4.936,4.936,0,0,0,2.888-.344q0.875-.406.987-3.2a8.688,8.688,0,0,0,2.263,2.531,6.058,6.058,0,0,0,3.2.953q1.825-.234,1.937-2.859V9.689a2.012,2.012,0,0,0-.925-1.453q-2.412-1.391-3.85,2.687a1.329,1.329,0,0,1,.988,1.125,81.677,81.677,0,0,1,.087,13.766,4.827,4.827,0,0,1-.762,2.5,0.527,0.527,0,0,1-.9.094,17.66,17.66,0,0,1-2-2.594,155.405,155.405,0,0,0-.425-15.75,1.7,1.7,0,0,0-1.788-1.813,2.234,2.234,0,0,0-1.85,1.172,4.213,4.213,0,0,0-.712,2.594h0Zm5.537,3.773a1.384,1.384,0,0,0,1.132.555,1.418,1.418,0,0,0,1.112-.594,2.2,2.2,0,0,0,.456-1.406,2.233,2.233,0,0,0-.456-1.414,1.362,1.362,0,0,0-1.106-.586,1.381,1.381,0,0,0-1.113.586,2.34,2.34,0,0,0-.481,1.438A2.077,2.077,0,0,0,124.387,15.791ZM124.2,23.8a2.1,2.1,0,0,0,.462,1.367,1.442,1.442,0,0,0,1.144.578,1.188,1.188,0,0,0,1.063-.57,2.441,2.441,0,0,0,.381-1.375,2.6,2.6,0,0,0-.381-1.406,1.126,1.126,0,0,0-1.063-.578,1.509,1.509,0,0,0-1.144.609A2.135,2.135,0,0,0,124.2,23.8Zm0.194-5.969a2.421,2.421,0,0,0-.432,1.438,2.209,2.209,0,0,0,.475,1.422,1.385,1.385,0,0,0,1.125.594,1.351,1.351,0,0,0,1.113-.594,2.2,2.2,0,0,0,.475-1.422,2.274,2.274,0,0,0-.463-1.43,1.432,1.432,0,0,0-1.162-.609A1.305,1.305,0,0,0,124.394,17.83Zm7.543-6.781Q134.463,7.1,136,10.268a4.318,4.318,0,0,1,.387,2.578,2.958,2.958,0,0,1-.85,1.656,15.061,15.061,0,0,0-1.887,2.531q2.175-1.906,2.812-.172a6.824,6.824,0,0,1,.388,2.906,32.6,32.6,0,0,0,.25,6.734,11.544,11.544,0,0,1,1.3-5.062q1.35-2.406,3.512-1.062a4.915,4.915,0,0,1,2.425,4.875,3.455,3.455,0,0,1-2.5,3.25,5.727,5.727,0,0,1-4.137.047,5.514,5.514,0,0,1-1.788-1.109,3.07,3.07,0,0,1-.875-1.859,1.6,1.6,0,0,0,.4-0.547,4.54,4.54,0,0,0,.438-1.672,2.31,2.31,0,0,0-.338-1.594,0.93,0.93,0,0,0-1.787.031,3.21,3.21,0,0,0-.475,1.766,5.478,5.478,0,0,0,.162,1.75A8.622,8.622,0,0,0,136,29.705a6.825,6.825,0,0,0,4.45,1.125A6.721,6.721,0,0,0,145.625,28a15.066,15.066,0,0,0,2.7-8.594,13.6,13.6,0,0,0-2.113-8.031q-2.724-4.3-7.875-2.5a1.519,1.519,0,0,1-1.487-.359q-2.975-2.328-4.913,2.531h0Zm18.375,3.734a5.167,5.167,0,0,1,2.738,2.5V29.643a11.265,11.265,0,0,0-2.75,1.172h7.2a2.638,2.638,0,0,1-.65-1.2V21.736L161,23.19q-0.175,4.719-1.513,7.016h7.675a21.228,21.228,0,0,1-2.775-9.5h-7.35l-0.062-4.813q3.513-.25,6.325-0.375a2.351,2.351,0,0,1-.95-1.469,9.621,9.621,0,0,1-.3-3.8,1.936,1.936,0,0,1,.537-1.219,73.844,73.844,0,0,1-9.362,0q-1.737-2.344-5.088-.2a3.6,3.6,0,0,1,4.213,1.156,3.671,3.671,0,0,1,.862,2.437,1.42,1.42,0,0,1-.75,1.609,20.967,20.967,0,0,1-2.15.75h0ZM172.4,8.08a4.551,4.551,0,0,0-3.513,2.734,7.986,7.986,0,0,0-.143,4.508q0.569,2.492,2.281,2.476a2.422,2.422,0,0,0,2.325-2.281,1.493,1.493,0,0,0,.262-0.266,1.782,1.782,0,0,0,0-2.281,1.2,1.2,0,0,0-1.925,0,1.826,1.826,0,0,0,0,2.281,1.211,1.211,0,0,0,.963.484,0.821,0.821,0,0,0,.187-0.016,1.7,1.7,0,0,1-1.9,1.063q-1.325-.219-1.312-2.594a3.567,3.567,0,0,1,1.525-3.3,2.216,2.216,0,0,1,2.925.383,6.561,6.561,0,0,1,1.8,4.133,7.817,7.817,0,0,1-.638,4.438,12.622,12.622,0,0,1-.725,1.2,9.039,9.039,0,0,1-1.637,1.906,2.743,2.743,0,0,0-.6,1.094,4.05,4.05,0,0,0-.163,1.125,1.446,1.446,0,0,0,.363,1,1.06,1.06,0,0,0,.856.438,1.094,1.094,0,0,0,.869-0.437,1.48,1.48,0,0,0,.35-1,1.5,1.5,0,0,0-.35-1.016,0.914,0.914,0,0,0-.225-0.2,14.848,14.848,0,0,0,1.762-1.469,2.916,2.916,0,0,1,1.363,2.578,3.538,3.538,0,0,1-1.475,3.063,3.129,3.129,0,0,1-3.225.031,3.3,3.3,0,0,1-1.925-2.828A4.71,4.71,0,0,1,171.4,22a2.4,2.4,0,0,1,3.112-.953,2.157,2.157,0,0,0-2.475-1.25,3.347,3.347,0,0,0-2.825,2.234,7.914,7.914,0,0,0-.525,4.578,4.621,4.621,0,0,0,1.988,3.359,6.209,6.209,0,0,0,4.087.891,3.522,3.522,0,0,0,3.25-2.062,8.413,8.413,0,0,0,.513-4.375,6.885,6.885,0,0,0-1.788-3.625,15.289,15.289,0,0,0,1.788-5.7,8.322,8.322,0,0,0-1.588-5.141,3.87,3.87,0,0,0-3.512-2.031,4.644,4.644,0,0,0-1.025.156h0Z"/>
    <path id="t2" class="cls-4" d="M189.44,14.49a5.167,5.167,0,0,1,2.738,2.5V29.35a11.265,11.265,0,0,0-2.75,1.172h7.2a2.638,2.638,0,0,1-.65-1.2V21.443l4.15,1.453q-0.175,4.719-1.513,7.016h7.675a21.228,21.228,0,0,1-2.775-9.5h-7.35L196.1,15.6q3.513-.25,6.325-0.375a2.351,2.351,0,0,1-.95-1.469,9.622,9.622,0,0,1-.3-3.8,1.936,1.936,0,0,1,.537-1.219,73.844,73.844,0,0,1-9.362,0q-1.737-2.344-5.088-.2a3.6,3.6,0,0,1,4.213,1.156,3.671,3.671,0,0,1,.862,2.438,1.42,1.42,0,0,1-.75,1.609,20.919,20.919,0,0,1-2.15.75h0Zm22.088-6.7a4.551,4.551,0,0,0-3.513,2.734,7.986,7.986,0,0,0-.143,4.508q0.568,2.492,2.281,2.477a2.422,2.422,0,0,0,2.325-2.281,1.493,1.493,0,0,0,.262-0.266,1.782,1.782,0,0,0,0-2.281,1.2,1.2,0,0,0-1.925,0,1.826,1.826,0,0,0,0,2.281,1.211,1.211,0,0,0,.963.484,0.82,0.82,0,0,0,.187-0.016,1.7,1.7,0,0,1-1.9,1.063q-1.325-.219-1.312-2.594a3.567,3.567,0,0,1,1.525-3.3,2.216,2.216,0,0,1,2.925.383,6.561,6.561,0,0,1,1.8,4.133,7.817,7.817,0,0,1-.638,4.438,12.635,12.635,0,0,1-.725,1.2A9.039,9.039,0,0,1,212,22.662a2.744,2.744,0,0,0-.6,1.094,4.05,4.05,0,0,0-.163,1.125,1.446,1.446,0,0,0,.363,1,1.06,1.06,0,0,0,.856.438,1.1,1.1,0,0,0,.869-0.437,1.48,1.48,0,0,0,.35-1,1.5,1.5,0,0,0-.35-1.016,0.916,0.916,0,0,0-.225-0.2,14.858,14.858,0,0,0,1.762-1.469,2.915,2.915,0,0,1,1.363,2.578,3.538,3.538,0,0,1-1.475,3.063,3.129,3.129,0,0,1-3.225.031,3.3,3.3,0,0,1-1.925-2.828,4.71,4.71,0,0,1,.925-3.328,2.4,2.4,0,0,1,3.112-.953,2.157,2.157,0,0,0-2.475-1.25,3.346,3.346,0,0,0-2.825,2.234,7.915,7.915,0,0,0-.525,4.578,4.621,4.621,0,0,0,1.988,3.359,6.21,6.21,0,0,0,4.087.891,3.522,3.522,0,0,0,3.25-2.062,8.413,8.413,0,0,0,.513-4.375,6.884,6.884,0,0,0-1.788-3.625,15.289,15.289,0,0,0,1.788-5.7,8.322,8.322,0,0,0-1.588-5.141,3.87,3.87,0,0,0-3.512-2.031,4.644,4.644,0,0,0-1.025.156h0Zm21.362,2.8a1.5,1.5,0,0,0-.437.578,3.007,3.007,0,0,0-.238,1.578,2.267,2.267,0,0,0,.488,1.547,1.692,1.692,0,0,0,1.112.531,1.3,1.3,0,0,0,1.138-.609,2.575,2.575,0,0,0,.475-1.7,2.786,2.786,0,0,0-.325-1.477,4.808,4.808,0,0,0-.413-0.531,3.237,3.237,0,0,1,1.688,1.063A6.774,6.774,0,0,1,237.99,15.1q0.426,2.656-1.487,2.562a1.522,1.522,0,0,0,1.937.453q1.214-.609,1.338-2.875a9.66,9.66,0,0,0-1.213-5.125A4.3,4.3,0,0,0,234.5,7.584,8.428,8.428,0,0,0,229.94,8.8a5.428,5.428,0,0,0-2.312,3.734,4.917,4.917,0,0,0,.825,4.187q1.313,1.641,2.487,1.328a3.56,3.56,0,0,1-1.587-2.953,3.539,3.539,0,0,1,1.637-3.594,7.53,7.53,0,0,1,1.9-.922h0Zm3.763,12.094a4.3,4.3,0,0,1,1.125,3.8q-0.288,1.5-2.713,2.281c-0.125.031-.245,0.063-0.362,0.094a2.819,2.819,0,0,0,.444-0.609,2.872,2.872,0,0,0,.225-1.547,3.2,3.2,0,0,0-.5-1.7,1.316,1.316,0,0,0-1.15-.609,1.367,1.367,0,0,0-1.144.664,3.136,3.136,0,0,0-.469,1.688,2.846,2.846,0,0,0,.469,1.758,1.017,1.017,0,0,0,.125.156,4.513,4.513,0,0,1-1.213-.719,4.232,4.232,0,0,1-1.975-2.859A5.52,5.52,0,0,1,230,21.943q-1.35.75-1.5,3.094a4.632,4.632,0,0,0,1.612,4.141,6.852,6.852,0,0,0,4.875,1.406,3.749,3.749,0,0,0,3.65-3.172,5.538,5.538,0,0,0-.037-2.937q-0.588-1.937-1.95-1.8h0Zm8.375-14.891a4.551,4.551,0,0,0-3.513,2.734,7.986,7.986,0,0,0-.143,4.508q0.568,2.492,2.281,2.477a2.422,2.422,0,0,0,2.325-2.281,1.493,1.493,0,0,0,.262-0.266,1.782,1.782,0,0,0,0-2.281,1.2,1.2,0,0,0-1.925,0,1.826,1.826,0,0,0,0,2.281,1.211,1.211,0,0,0,.963.484,0.82,0.82,0,0,0,.187-0.016,1.7,1.7,0,0,1-1.9,1.063q-1.325-.219-1.312-2.594a3.567,3.567,0,0,1,1.525-3.3,2.216,2.216,0,0,1,2.925.383,6.561,6.561,0,0,1,1.8,4.133,7.817,7.817,0,0,1-.638,4.438,12.635,12.635,0,0,1-.725,1.2,9.039,9.039,0,0,1-1.637,1.906,2.744,2.744,0,0,0-.6,1.094,4.05,4.05,0,0,0-.163,1.125,1.446,1.446,0,0,0,.363,1,1.06,1.06,0,0,0,.856.438,1.1,1.1,0,0,0,.869-0.437,1.48,1.48,0,0,0,.35-1,1.5,1.5,0,0,0-.35-1.016,0.916,0.916,0,0,0-.225-0.2,14.858,14.858,0,0,0,1.762-1.469,2.915,2.915,0,0,1,1.363,2.578,3.538,3.538,0,0,1-1.475,3.063,3.129,3.129,0,0,1-3.225.031,3.3,3.3,0,0,1-1.925-2.828,4.71,4.71,0,0,1,.925-3.328,2.4,2.4,0,0,1,3.112-.953,2.157,2.157,0,0,0-2.475-1.25,3.346,3.346,0,0,0-2.825,2.234,7.915,7.915,0,0,0-.525,4.578,4.621,4.621,0,0,0,1.988,3.359,6.21,6.21,0,0,0,4.087.891,3.522,3.522,0,0,0,3.25-2.062,8.413,8.413,0,0,0,.513-4.375,6.884,6.884,0,0,0-1.788-3.625,15.289,15.289,0,0,0,1.788-5.7,8.322,8.322,0,0,0-1.588-5.141,3.87,3.87,0,0,0-3.512-2.031,4.644,4.644,0,0,0-1.025.156h0ZM268.4,7.631h-5.75l1.712,3.375Q265,21.069,264.2,23.959q-0.937,3.438-2.7,3.922-2.363.594-3.363-2.2-1.162-3.266-.331-8.781a49.261,49.261,0,0,1,2.069-8.984H252.39l2.888,3.516q-0.375,5.766-.238,11.563a8.435,8.435,0,0,0,1.788,5.125,5.557,5.557,0,0,0,3.4,2.391q3.563,0.484,5.175-1.453a9.46,9.46,0,0,0,1.837-6.375q-0.05-5.594-.137-11.141Zm-5.963,8.68a3.066,3.066,0,0,0,.507-1.867,3.444,3.444,0,0,0-.569-1.93A1.649,1.649,0,0,0,261,11.7a1.457,1.457,0,0,0-1.313.781,3.6,3.6,0,0,0-.475,1.93,3.233,3.233,0,0,0,.544,1.9,1.582,1.582,0,0,0,1.35.75A1.6,1.6,0,0,0,262.44,16.311Zm17-7.508q0.412,10.172,1.625,20.2a1.6,1.6,0,0,0,1.625,1.547h9.163a1.463,1.463,0,0,0,1.437-1.547A137.057,137.057,0,0,1,294.665,7.99l-3.95-.281q-1.074-.047-0.862,1.828,0.851,7.906,1.387,15.828,0.138,1.984-1.275,2.266h-1.65a71.977,71.977,0,0,1-.425-8.406,1.094,1.094,0,0,1,1.05.2,0.531,0.531,0,0,1-.075.758,2.1,2.1,0,0,0-.418,1.234q-0.057.8,0.656,0.742a1.038,1.038,0,0,0,.912-0.961,3.223,3.223,0,0,0-.243-1.961,1.461,1.461,0,0,0-1.632-.953h-3.112a1.333,1.333,0,0,0-1.081,1.422,5.6,5.6,0,0,0,.075,1.828,1.143,1.143,0,0,0,.712.789q0.545,0.211.788-.648a1.251,1.251,0,0,0-.094-1.219,1.187,1.187,0,0,0-.525-0.391q-0.488-.109-0.213-0.641,0.276-.547,1.588-0.094,0.15,4.281-.1,8.3h-1.55q-1.825-.265-1.838-1.484-0.087-8.437.263-16.906A2.708,2.708,0,0,0,284.19,7.85a22.427,22.427,0,0,0-6.1.25q-1.137.25,1.35,0.7h0Zm18.513,1.391a2.884,2.884,0,0,0,.612,1.859,1.852,1.852,0,0,0,3,0,2.843,2.843,0,0,0,.625-1.859,2.844,2.844,0,0,0-.625-1.859,1.875,1.875,0,0,0-3,0A2.885,2.885,0,0,0,297.953,10.193Zm-0.438,7.125a6.529,6.529,0,0,0,4.063,2.141,1.058,1.058,0,0,1,1,1.156v5.547q0.038,1.031-1.525,1.172a5.608,5.608,0,0,1-5.138-1.891,17.47,17.47,0,0,0-.037,3.2q0.113,1.578,1.225,1.734l9.425,0.172L306.2,15.631q0.488-1.062.925-2.312a5.447,5.447,0,0,0,.287-1.828q0-.656-1.55-0.766-0.462-.078-0.5,1.2A5.364,5.364,0,0,1,303.9,14.92a2.826,2.826,0,0,1-3.388,1,6.093,6.093,0,0,1-3.244-3.289,11.49,11.49,0,0,1-1.012-4.438,9,9,0,0,0-.5,4.781,7.733,7.733,0,0,0,1.762,4.344h0Zm15.113-9.531a4.551,4.551,0,0,0-3.513,2.734,7.986,7.986,0,0,0-.143,4.508q0.569,2.492,2.281,2.477a2.422,2.422,0,0,0,2.325-2.281,1.493,1.493,0,0,0,.262-0.266,1.782,1.782,0,0,0,0-2.281,1.2,1.2,0,0,0-1.925,0,1.826,1.826,0,0,0,0,2.281,1.211,1.211,0,0,0,.963.484,0.82,0.82,0,0,0,.187-0.016,1.7,1.7,0,0,1-1.9,1.063q-1.325-.219-1.312-2.594a3.567,3.567,0,0,1,1.525-3.3,2.216,2.216,0,0,1,2.925.383,6.561,6.561,0,0,1,1.8,4.133,7.817,7.817,0,0,1-.638,4.438,12.635,12.635,0,0,1-.725,1.2,9.039,9.039,0,0,1-1.637,1.906,2.744,2.744,0,0,0-.6,1.094,4.05,4.05,0,0,0-.163,1.125,1.446,1.446,0,0,0,.363,1,1.06,1.06,0,0,0,.856.438,1.1,1.1,0,0,0,.869-0.437,1.48,1.48,0,0,0,.35-1,1.5,1.5,0,0,0-.35-1.016,0.916,0.916,0,0,0-.225-0.2,14.858,14.858,0,0,0,1.762-1.469,2.915,2.915,0,0,1,1.363,2.578,3.538,3.538,0,0,1-1.475,3.063,3.129,3.129,0,0,1-3.225.031,3.3,3.3,0,0,1-1.925-2.828,4.71,4.71,0,0,1,.925-3.328,2.4,2.4,0,0,1,3.112-.953,2.157,2.157,0,0,0-2.475-1.25,3.346,3.346,0,0,0-2.825,2.234,7.915,7.915,0,0,0-.525,4.578,4.621,4.621,0,0,0,1.988,3.359,6.21,6.21,0,0,0,4.087.891,3.522,3.522,0,0,0,3.25-2.062,8.413,8.413,0,0,0,.513-4.375,6.884,6.884,0,0,0-1.788-3.625,15.289,15.289,0,0,0,1.788-5.7,8.322,8.322,0,0,0-1.588-5.141,3.87,3.87,0,0,0-3.512-2.031,4.644,4.644,0,0,0-1.025.156h0Zm8.787,0.641a2.97,2.97,0,0,0-.687,1.984,2.969,2.969,0,0,0,.687,1.984,2.214,2.214,0,0,0,.813.656,2.291,2.291,0,0,1-1.65.5,2.681,2.681,0,0,0,4-1.016A1.659,1.659,0,0,0,324.7,12.4a3,3,0,0,0,.675-1.984,3,3,0,0,0-.675-1.984,2.065,2.065,0,0,0-1.65-.844,2.033,2.033,0,0,0-1.638.844h0Zm0.213,9.312A3.059,3.059,0,0,0,321,19.662a3.106,3.106,0,0,0,.625,1.953,2.019,2.019,0,0,0,.562.516,2.988,2.988,0,0,1-1.812,0,2.742,2.742,0,0,0,3.787-.062l0.113-.094a2.462,2.462,0,0,0,.35-0.359,3.106,3.106,0,0,0,.625-1.953,3.059,3.059,0,0,0-.625-1.922,1.839,1.839,0,0,0-1.494-.781,1.874,1.874,0,0,0-1.506.781h0Zm2.756,8.8a1.632,1.632,0,0,0-2.662,0,2.55,2.55,0,0,0-.557,1.656,2.577,2.577,0,0,0,.425,1.484,2.254,2.254,0,0,1-1.6-.016q0.438,0.906,2.838.859a0.751,0.751,0,0,0,.225.031,1.658,1.658,0,0,0,1.331-.7,2.58,2.58,0,0,0,.556-1.664A2.549,2.549,0,0,0,324.384,26.537ZM328,8.428a2.965,2.965,0,0,0-.688,1.984A2.965,2.965,0,0,0,328,12.4a2.211,2.211,0,0,0,.812.656,2.291,2.291,0,0,1-1.65.5,2.681,2.681,0,0,0,4-1.016,1.5,1.5,0,0,0,.125-0.141,3,3,0,0,0,.675-1.984,3,3,0,0,0-.675-1.984,2.065,2.065,0,0,0-1.65-.844A2.032,2.032,0,0,0,328,8.428h0Zm0.212,9.312a3.065,3.065,0,0,0-.625,1.922,3.112,3.112,0,0,0,.625,1.953,2.022,2.022,0,0,0,.563.516,2.991,2.991,0,0,1-1.813,0,2.743,2.743,0,0,0,3.788-.062l0.112-.094a2.462,2.462,0,0,0,.35-0.359,3.106,3.106,0,0,0,.625-1.953,3.059,3.059,0,0,0-.625-1.922,1.839,1.839,0,0,0-1.493-.781,1.874,1.874,0,0,0-1.507.781h0Zm2.757,8.8a1.633,1.633,0,0,0-2.663,0,2.549,2.549,0,0,0-.556,1.656,2.577,2.577,0,0,0,.425,1.484,2.254,2.254,0,0,1-1.6-.016q0.438,0.906,2.837.859a0.751,0.751,0,0,0,.225.031,1.66,1.66,0,0,0,1.332-.7,2.585,2.585,0,0,0,.556-1.664A2.555,2.555,0,0,0,330.972,26.537Z"/>
    <g id="tgroup">
      <use href="#t1" />
      <use href="#t2" />
      <use href="#t1" x="340"/>
      <use href="#t2" x="340"/>
      <use href="#t1" x="680"/>
      <use href="#t2" x="680"/>
      <use href="#t1" x="1020"/>
      <use href="#t2" x="1020"/>
    </g>
  </defs>

  <g style="transform: translate(-50px, 270px) rotate(-9deg)">
      <use href="#bg2" />
      <use href="#bg1" />

      <use href="#tgroup" style="transform:translateX(-30px)" />
  </g>
  <g style="transform: translate(-50px, 110px) rotate(13deg)">
      <use href="#bg2" />
      <use href="#bg1" />

      <use href="#tgroup" style="transform:translateX(-200px)" />
  </g>
</svg>
